<?xml version="1.0" encoding="UTF-8"?>
<svg width="108px" height="126px" viewBox="0 0 108 126" version="1.1" xmlns="http://www.w3.org/2000/svg" xmlns:xlink="http://www.w3.org/1999/xlink">
    <!-- Generator: Sketch 52.2 (67145) - http://www.bohemiancoding.com/sketch -->
    <title>Artboard</title>
    <desc>Created with Sketch.</desc>
    <g id="Artboard" stroke="none" stroke-width="1" fill="none" fill-rule="evenodd">
        <path d="M11.012,90.125 C5.474,90.128 0.974,85.622 0.973,80.085 L0.971,49.346 C0.969,43.814 5.468,39.309 10.999,39.308 C13.688,39.306 16.206,40.349 18.104,42.245 C20.002,44.141 21.046,46.663 21.048,49.344 L21.045,80.084 C21.052,82.763 20.011,85.283 18.114,87.178 C16.222,89.078 13.697,90.124 11.012,90.125 M11.004,42.005 C6.951,42.003 3.666,45.296 3.665,49.346 L3.67,80.082 C3.671,84.146 6.962,87.426 11.011,87.43 C15.068,87.425 18.354,84.145 18.35,80.083 L18.35,49.342 C18.348,45.293 15.059,42.003 11.004,42.005" id="Shape" fill-rule="nonzero"></path>
        <path d="M89.742,43.527 L87.044,43.526 L20.925,43.535 L18.226,43.536 L18.224,40.837 C18.218,29.757 24.254,19.452 34.141,13.364 L30.297,6.347 C29.827,5.525 29.709,4.484 29.983,3.532 C30.261,2.58 30.918,1.761 31.797,1.293 C32.306,1.005 32.928,0.845 33.556,0.846 C34.918,0.846 36.165,1.585 36.823,2.779 L40.846,10.108 C45.009,8.581 49.404,7.802 53.945,7.803 C58.551,7.801 62.968,8.58 67.149,10.114 L71.166,2.773 C71.813,1.582 73.069,0.84 74.429,0.841 C75.041,0.84 75.652,0.989 76.19,1.279 C77.093,1.774 77.723,2.565 78,3.524 C78.276,4.477 78.165,5.483 77.682,6.356 L73.84,13.369 C83.711,19.47 89.74,29.767 89.739,40.828 L89.742,43.527 Z M70.196,14.403 L75.319,5.048 C75.592,4.559 75.414,3.933 74.92,3.662 C74.419,3.391 73.801,3.576 73.536,4.067 L68.36,13.517 C64.006,11.583 59.131,10.496 53.978,10.501 C48.836,10.496 43.97,11.579 39.629,13.506 L34.448,4.077 C34.181,3.58 33.557,3.398 33.069,3.672 C32.572,3.938 32.389,4.563 32.666,5.051 L37.791,14.399 C27.721,19.593 20.917,29.483 20.922996,40.838 L87.041,40.83 C87.044,29.479 80.252,19.609 70.196,14.403 Z M38.94,28.86 C37.419,28.857 36.177,27.619 36.177,26.089 C36.177,24.566 37.417,23.315 38.943,23.315 C40.476,23.314 41.716,24.566 41.718,26.089 C41.719,27.617 40.476,28.859 38.94,28.86 Z M69.047,28.854 C67.519,28.856 66.272,27.619 66.275,26.083 C66.275,24.562 67.517,23.311 69.048,23.305 C70.569,23.31 71.816,24.563 71.815,26.084 C71.815,27.615 70.574,28.855 69.047,28.854 Z M41.711,125.159 C36.178,125.158 31.675,120.658 31.674,115.121 L31.672,101.554 L29.034,101.557 C26.217,101.558 23.573,100.463 21.586,98.475 C19.596,96.489 18.499,93.842 18.503,91.023 L18.493,43.396 L18.493,40.695 L21.192,40.695 L86.815,40.685 L89.515,40.683 L89.515,43.382 L89.522,91.015 C89.523,96.824 84.797,101.551 78.99,101.55 L76.336,101.552 L76.339,115.114 C76.339,120.648 71.837,125.153 66.306,125.153 C63.625,125.159 61.109,124.117 59.208,122.216 C57.307,120.32 56.26,117.8 56.261,115.12 L56.261,101.552 L51.75,101.552 L51.75,115.117 C51.748,120.652 47.247,125.16 41.711,125.159 Z" id="Shape" fill-rule="nonzero"></path>
        <path d="M21.205,91.022 C21.201,95.359 24.702,98.86 29.036,98.859 L34.369,98.859 L34.375,115.123 C34.374,119.173 37.664,122.464 41.71,122.465 C45.766,122.465 49.052,119.17 49.048,115.117 L49.049,98.858 L58.958,98.855 L58.957,115.118 C58.961,119.169 62.255,122.464 66.3,122.456 C70.356,122.459 73.644,119.164 73.643,115.112 L73.638,98.853 L78.991,98.852 C83.31,98.853 86.823,95.344 86.823,91.015 L86.814,43.38 L21.193,43.392 L21.205,91.022 Z M96.996,90.112 C91.46,90.113 86.957,85.614 86.958,80.076 L86.95,49.338 C86.952,43.801 91.448,39.297 96.981,39.297 C102.521,39.296 107.027,43.799 107.026,49.335 L107.029,80.071 C107.03,85.605 102.531,90.113 96.996,90.112 Z M96.986,41.996 C92.933,41.992 89.649,45.283 89.649,49.338 L89.652,80.075 C89.654,84.134 92.938,87.418 96.994,87.415 C101.048,87.414 104.329,84.134 104.332,80.072 L104.324,49.336 C104.323,45.28 101.041,41.994 96.986,41.996 Z" id="Shape" fill-rule="nonzero"></path>
        <path d="M11.004,42.005 C6.951,42.003 3.666,45.296 3.665,49.346 L3.67,80.082 C3.671,84.146 6.958,87.426 11.012,87.425 C15.068,87.425 18.354,84.145 18.35,80.083 L18.35,49.342 C18.348,45.293 15.059,42.003 11.004,42.005 Z M70.196,14.403 L75.319,5.048 C75.592,4.559 75.413,3.937 74.918,3.66 C74.418,3.395 73.801,3.575 73.536,4.067 L68.361,13.52 C64.007,11.582 59.134,10.496 53.978,10.501 C48.836,10.496 43.965,11.579 39.629,13.506 L34.448,4.077 C34.179,3.58 33.559,3.4 33.07,3.671 C32.572,3.94 32.389,4.563 32.666,5.051 L37.791,14.4 C27.721,19.593 20.917,29.483 20.922996,40.838 L87.041,40.83 C87.044,29.479 80.252,19.609 70.196,14.403 Z M38.94,28.86 C37.419,28.857 36.177,27.619 36.177,26.089 C36.177,24.566 37.415,23.314 38.943,23.315 C40.476,23.314 41.716,24.566 41.718,26.089 C41.719,27.617 40.476,28.859 38.94,28.86 Z M69.047,28.854 C67.519,28.856 66.275,27.617 66.275,26.083 C66.281,24.563 67.517,23.311 69.048,23.305 C70.569,23.31 71.816,24.563 71.815,26.084 C71.817,27.615 70.574,28.855 69.047,28.854 Z M21.193,43.392 L21.204,91.027 C21.201,95.36 24.706,98.858 29.036,98.858 L34.369,98.86 L34.375,115.124 C34.374,119.174 37.666,122.466 41.71,122.466 C45.766,122.466 49.052,119.171 49.053,115.119 L49.049,98.859 L58.958,98.856 L58.962,115.119 C58.962,119.166 62.255,122.465 66.3,122.457 C70.356,122.46 73.644,119.165 73.643,115.113 L73.638,98.854 L78.99,98.85 C83.31,98.852 86.824,95.35 86.826,91.016 L86.817,43.381 L21.193,43.392 Z M104.327,49.335 C104.326,45.28 101.041,41.994 96.986,41.996 C92.933,41.992 89.649,45.283 89.649,49.338 L89.655,80.076 C89.654,84.134 92.938,87.414 96.994,87.415 C101.048,87.414 104.331,84.134 104.332,80.072 L104.327,49.335 Z" id="Shape" fill="#A4C439" fill-rule="nonzero"></path>
    </g>
</svg>