<?xml version="1.0" encoding="UTF-8"?>
<svg width="128px" height="50px" viewBox="0 0 128 50" version="1.1" xmlns="http://www.w3.org/2000/svg" xmlns:xlink="http://www.w3.org/1999/xlink">
    <!-- Generator: Sketch 52.2 (67145) - http://www.bohemiancoding.com/sketch -->
    <title>babel</title>
    <desc>Created with Sketch.</desc>
    <g id="babel" stroke="none" stroke-width="1" fill="none" fill-rule="evenodd">
        <g id="babel-original" fill-rule="nonzero">
            <path d="M87.44,4.79 L87.44,4.52 L87,4.52 L87,4.79 L87.44,4.79 Z M90.38,11.87 L90.38,12 L90.69,12 C90.6928185,11.8522966 90.7233475,11.7064358 90.78,11.57 L90.78,11.3 C90.65,11.3 90.52,11.51 90.4,11.88 L90.38,11.87 Z M78.9,20.79 C78.2564454,19.6879843 77.4658519,18.6787161 76.55,17.79 C76.55,17.47 77.05,17 78.14,16.37 L81.25,13.66 C82.0733735,12.374852 82.50108,10.8761405 82.48,9.35 L82.48,8.89 C82.36,7.51 81.36,6.4 79.48,5.55 C78.36,4.79666667 76.36,4.38 73.48,4.3 C70.2129715,4.73664536 67.0224628,5.62514144 64,6.94 C62.8334302,7.77009949 61.6215554,8.53461555 60.37,9.23 L60.37,9.46 C60.5007637,9.43524055 60.6239967,9.38047032 60.73,9.3 C60.7936858,9.28435878 60.8610221,9.29936634 60.9120383,9.34057167 C60.9630544,9.38177699 60.9918926,9.44444894 60.99,9.51 L61.22,9.39 L61.33,9.39 L61.33,9.49 C60.5745046,10.2608268 59.7244042,10.9328429 58.8,11.49 L58.93,11.73 L58.82,11.73 L58.54,11.63 C58.54,11.71 58.43,11.77 58.2,11.79 L58.2,11.89 L58.47,12.23 C58.3352633,12.2265886 58.2026065,12.1959755 58.08,12.14 C57.6298949,12.2028859 57.217807,12.4266922 56.92,12.77 L57.08,12.08 C57.5934707,9.93788743 57.9808031,7.76749066 58.24,5.58 L58.24,5.46 C57.808416,5.17419025 57.4266743,4.81947445 57.11,4.41 C57.1207979,4.24684513 57.1207979,4.08315487 57.11,3.92 L57.11,3.82 L57,3.82 C55.7733333,5.66666667 53.4033333,8.81666667 49.89,13.27 C47.2233333,16.4366667 45.8433333,18.1966667 45.75,18.55 C44.66,19.68 44.14,20.36 44.19,20.55 C43.9,20.74 43.78,20.92 43.83,21.13 C43.7968539,21.1424193 43.7599156,21.1395714 43.7290649,21.1222179 C43.6982143,21.1048644 43.6765988,21.0747759 43.67,21.04 C43.2085706,21.7916429 42.4548576,22.3170678 41.59,22.49 L40.59,22.71 C40.5264159,22.7194822 40.4697023,22.7551429 40.4336049,22.808339 C40.3975075,22.8615352 40.3853214,22.927411 40.4,22.99 L40.4,23.11 L40.76,23.03 L40.76,23.13 L39.94,23.45 L38.49,23.79 L37.73,23.79 C37.62,23.9 38.34,23.79 38.06,23.85 L37.06,24.07 C36.48,24.2 36.17,24.15 36.06,23.92 L35.95,23.92 C35.9676674,23.9990246 35.9676674,24.0809754 35.95,24.16 L36.07,24 L35.31,24.18 C35.2566667,23.8266667 34.2266667,22.54 32.22,20.32 C32.22,19.89 32.89,19.27 34.34,18.46 L38.42,14.87 C39.3333333,13.6966667 39.8766667,11.8133333 40.05,9.22 L40,8.63 C39.84,6.8 38.52,5.33 36,4.19 C34.53,3.19 31.88,2.66 28.06,2.58 C23.8017496,3.15911103 19.6409689,4.30946431 15.69,6 C14.1576768,7.09406739 12.561514,8.0958432 10.91,9 L10.91,9.32 C11.0814775,9.29075563 11.2449634,9.22604245 11.39,9.13 C11.4709608,9.1082667 11.5574239,9.12537039 11.6240126,9.17629119 C11.6906014,9.22721199 11.7297616,9.30617321 11.73,9.39 L12.05,9.21 L12.21,9.21 L12.21,9.36 C11.1989964,10.3506707 10.0784405,11.2229597 8.87,11.96 L9.05,12.24 L8.9,12.24 L8.56,12.12 C8.56,12.21 8.41,12.28 8.08,12.31 L8.08,12.48 L8.45,12.89 C8.27851924,12.8884882 8.10887139,12.8545586 7.95,12.79 C7.04508265,12.9778147 6.26718943,13.5511914 5.82,14.36 L6,14.64 C6.30795614,14.3043082 6.66541799,14.0176642 7.06,13.79 L7.06,14.25 C6.89039319,14.2856886 6.7280833,14.3499362 6.58,14.44 L7,15 C7.72337374,14.2345495 8.53972007,13.5626595 9.43,13 C9.87,13.11 10.1,13.25 10.11,13.4 L10.45,13.4 C12.6132521,11.747486 15.0226035,10.4449515 17.59,9.54 L17.59,9.86 C17.15,10.5266667 16.8533333,10.86 16.7,10.86 C16.7107291,11.0763893 16.7914443,11.2834414 16.93,11.45 C16.97,11.85 15.9,14.55 13.72,19.55 C8.82,31.1033333 4.69333333,39.6566667 1.34,45.21 C1.37077348,45.3735095 1.43925356,45.5275896 1.54,45.66 C2.09870567,45.5689042 2.63294098,45.3647379 3.11,45.06 L3.29,45.06 L3.29,45.38 L3.6,45.38 L3.92,45.2 C3.92,45.29 4.03,45.34 4.25,45.32 L4.25,45.64 C4.21013701,46.1271795 4.044767,46.5957278 3.77,47 C3.26872928,47.7286149 2.90288151,48.54161 2.69,49.4 L2.69,49.55 L3,49.55 C4.21800987,48.2277636 5.24772293,46.7437653 6.06,45.14 C9.16389681,44.3121806 12.1785097,43.180026 15.06,41.76 C16.7691813,41.7123557 18.4230056,41.1436355 19.8,40.13 L19.8,39.96 L19.02,40.19 L18.84,40.19 L18.84,40.02 C19.9611232,39.9433315 21.0478219,39.6005244 22.01,39.02 C24.9833333,36.7266667 27.23,35.1033333 28.75,34.15 C31.87,31.8566667 33.8933333,29.6233333 34.82,27.45 L35.34,27.33 C35.5898108,27.3437567 35.8401892,27.3437567 36.09,27.33 C36.09,27.25 36.09,27.2 36.19,27.18 C36.89,27.11 36.55,27.18 37,27.12 L38.17,26.85 C38.1,26.85 38.07,26.91 38.09,26.98 L38.27,26.87 L38.18,26.87 L38.38,26.87 L38.29,26.93 C38.4320585,26.9570354 38.5779415,26.9570354 38.72,26.93 L38.8,27.27 L33.38,35.6 L32.2,37.08 L31.62,39 L31.73,39 L32.31,38.76 L32.12,39.51 L32.18,39.73 L32.34,39.93 C32.27,39.93 32.24,40 32.26,40.08 L32.26,40.2 L32.5,40.14 C32.8533333,39.8333333 33.0033333,39.5533333 32.95,39.3 C33.197945,39.363874 33.4551037,39.384176 33.71,39.36 L33.71,39.48 C33.48,39.54 33.36,39.72 33.34,40.04 L33.34,40.16 L33.47,40.16 C35.41,38.04 40.16,30.81 43.97,25.89 C43.85,25.3566667 45.85,24.6166667 49.97,23.67 L50.1,23.67 C50.2466667,24.3366667 49.9133333,25.8933333 49.1,28.34 C48.7815815,29.1272834 48.5437014,29.9447866 48.39,30.78 C47.9877512,31.8236928 47.6798529,32.901337 47.47,34 L46.02,38.76 C45.0643958,41.2580946 44.3413307,43.839035 43.86,46.47 C43.9917892,46.4413027 44.1282108,46.4413027 44.26,46.47 L44.46,46.29 C44.4665988,46.3247759 44.4882143,46.3548644 44.5190649,46.3722179 C44.5499156,46.3895714 44.5868539,46.3924193 44.62,46.38 L44.63,46 L45.26,46 C45.45,46 45.6,45.72 45.74,45.29 C45.74,44.65 45.84,44.29 46.13,44.23 C46.2774664,43.4309289 46.5191533,42.65216 46.85,41.91 C47.0036194,41.0112752 47.2760041,40.1369537 47.66,39.31 C48.21,37.31 48.66,36.31 48.87,36.25 L48.93,36.49 L48.53,37.49 C48.0094708,39.9899005 47.3007867,42.4468949 46.41,44.84 L46.62,45.73 L46.75,45.73 C48.4833333,42.0033333 50.9766667,34.6233333 54.23,23.59 C54.302847,22.6595547 54.8205411,21.8215606 55.62,21.34 L55.43,21.14 L55.43,21.04 C55.7348015,20.9929097 56.0120518,20.8365121 56.21,20.6 C56.21,20.52 55.87,20.39 55.21,20.23 L56.83,13.23 C57.0089562,13.0370941 57.2184176,12.8749304 57.45,12.75 L57.45,13.1 C57.3192363,13.1247594 57.1960033,13.1795297 57.09,13.26 L57.4,13.7 C57.9444437,13.104772 58.5589092,12.5776076 59.23,12.13 C59.57,12.22 59.73,12.34 59.75,12.45 L59.99,12.45 C61.63664,11.2019379 63.468926,10.2199946 65.42,9.54 L65.42,9.77 C65.0933333,10.2633333 64.87,10.5133333 64.75,10.52 C64.7631859,10.6798593 64.8146331,10.834201 64.9,10.97 C64.2581875,13.0829184 63.4524062,15.1425087 62.49,17.13 C59.7695322,23.8440028 56.6162401,30.3743906 53.05,36.68 C53.0809117,36.8044789 53.1389639,36.9205833 53.22,37.02 C53.6415863,36.9523853 54.043883,36.7955578 54.4,36.56 L54.51,36.56 L54.51,36.79 L54.77,36.79 L55,36.67 C55,36.7366667 55.0833333,36.7633333 55.25,36.75 L55.25,37 C55.2157947,37.383192 55.0774748,37.7497399 54.85,38.06 C54.4534549,38.6070627 54.1649606,39.2247798 54,39.88 L54,40 L54.24,40 C55.1649033,38.9962915 55.9457164,37.8688243 56.56,36.65 C58.9041107,36.0185484 61.1814417,35.1612002 63.36,34.09 C64.6650007,34.0561428 65.9283241,33.6234021 66.98,32.85 L66.98,32.73 L66.37,32.91 L66.24,32.91 L66.24,32.79 C67.0898327,32.7277529 67.9125786,32.4637886 68.64,32.02 C70.89,30.29 72.64,29.02 73.76,28.32 C77.36,25.7 79.03,23.19 78.83,20.77 L78.9,20.79 Z M78.29,20.95 L78.37,21.89 C78.26,22.12 78.14,22.24 78.03,22.25 L77.89,20.65 C78.15,20.74 78.28,20.84 78.29,20.95 Z M7.73,13.37 L7.57,13.37 L7.57,13.08 L8.19,13 L8.19,13.15 C8.02192057,13.1802906 7.86191045,13.2449756 7.72,13.34 L7.73,13.37 Z M4.59,44.78 C4.28047306,44.6245934 3.93589366,44.5522317 3.59,44.57 L3.59,44.11 C3.59,43.93 3.67,43.81 3.9,43.77 C4.13,43.73 4.23,43.9 4.24,44.2 C4.50300276,43.8381641 4.80111793,43.5032033 5.13,43.2 L5.47,43.34 C5.36,44.27 5.07,44.75 4.61,44.78 L4.59,44.78 Z M38.14,9.68 C37.98,9.68 37.66,9.2 37.21,8.23 L37.21,7.94 C37.51,7.94 37.82,8.4 38.14,9.39 L38.14,9.68 Z M37.7,6.2 L37.57,6.51 L33,4.61 C36.04,4.71 37.6033333,5.24 37.69,6.2 L37.7,6.2 Z M18.46,22.72 L17.82,22.78 L17.82,22.49 L18.46,22.43 L18.46,22.72 Z M17.94,12.8 L18.1,12.8 L18.1,13.26 C17.95,13.26 17.76,13.49 17.51,13.92 L17.51,13.6 C17.8,13.26 17.95,12.99 17.93,12.81 L17.94,12.8 Z M16.58,16 L16.64,16.61 L16.48,16.61 L16.42,16 L16.58,16 Z M15.87,17.14 L16.18,17.14 C16.18,17.64 16.01,17.91 15.76,17.93 L15.6,17.93 C15.7613516,17.7042104 15.8550098,17.4371111 15.87,17.16 L15.87,17.14 Z M15.34,18.72 L15.52,18.72 L15.52,18.87 L15.23,19.35 L14.92,19.35 L14.92,19.2 C15.0471183,19.20973 15.1712609,19.1582809 15.2542304,19.0614832 C15.3371999,18.9646854 15.3690571,18.8341347 15.34,18.71 L15.34,18.72 Z M14.82,20.15 L14.73,20.91 L14.57,20.91 L14.5,20.16 L14.82,20.16 L14.82,20.15 Z M9.59,35 C9.38,36 9.16,36.57 8.93,36.59 L8.93,36.44 C8.89387629,35.8795589 9.14186628,35.3384898 9.59,35 Z M8.59,37.08 L8.59,37.23 C8.61291517,37.3144593 8.59347431,37.4047866 8.53784181,37.4723403 C8.4822093,37.5398941 8.39728609,37.5762946 8.31,37.57 L8.31,37.42 C8.31,37.24 8.40333333,37.1266667 8.59,37.08 Z M8.31,41.39 L8.79,41.39 L8.79,41.56 C8.61852251,41.5892444 8.45503658,41.6539575 8.31,41.75 L8,41.75 C8,41.59 8.08,41.47 8.28,41.41 L8.31,41.39 Z M22.1,37.13 C20.4060721,37.8639186 18.796675,38.7792632 17.3,39.86 C14.3866667,40.88 12.9533333,41.5166667 13,41.77 C11.2243773,42.4105691 9.48803581,43.1551925 7.8,44 C7.50317006,43.9955491 7.21171708,43.9201142 6.95,43.78 C6.911811,43.2450494 7.18927985,42.7370079 7.66,42.48 C8.10644124,42.4388858 8.55616461,42.5075459 8.97,42.68 C9.78215931,42.3160637 10.6300864,42.03789 11.5,41.85 L11.5,41.53 L10.5,41.61 C11.3785831,41.0647668 12.3184086,40.6250627 13.3,40.3 L13.78,40.3 L13.78,40.45 C12.95,40.52 12.49,40.77 12.39,41.2 C12.39,41.4 12.52,41.48 12.73,41.46 C13.35,41.07 13.66,40.84 13.65,40.77 C14.8366667,40.5433333 18.1066667,38.8333333 23.46,35.64 L23.46,35.93 C23.46,36.07 23.01,36.46 22.09,37.13 L22.1,37.13 Z M13.88,39.83 C14.6364976,39.7694016 15.3461511,39.4394127 15.88,38.9 C16.1,38.9 16.22,38.97 16.23,39.16 C15.4487902,39.3673351 14.708325,39.7054471 14.04,40.16 L13.88,40.16 L13.88,39.85 L13.88,39.83 Z M27.19,29.64 L23.08,32.9 C21.5073945,34.0118524 19.8601737,35.014218 18.15,35.9 C13.2833333,38.5666667 10.26,39.9566667 9.08,40.07 L8.9,40.07 C9.04666667,39.5233333 11.2133333,35.0866667 15.4,26.76 C18.4019628,26.2770883 21.3293245,25.4099709 24.11,24.18 L25.11,24.1 C26.7025629,23.8155635 28.3402508,24.2350159 29.6,25.25 L29.66,25.86 C28.9133333,28 28.0966667,29.2533333 27.21,29.62 L27.19,29.64 Z M19.19,25.12 L19.85,25.06 L19.85,25.21 L19.19,25.27 L19.19,25.12 Z M28.48,23.55 L28.96,23.55 C29.41,23.76 29.64,23.95 29.66,24.12 L29.66,24.27 C29.1718282,24.2764494 28.7176544,24.0207382 28.47,23.6 L28.48,23.55 Z M29.79,16.07 C28.7217905,17.0763472 27.5405818,17.9555423 26.27,18.69 C25.64,18.75 23.27,19.69 19.2,21.45 C18.9965175,21.3576551 18.7725369,21.3197507 18.55,21.34 L18.55,21.05 C18.5721344,20.2451132 18.8486991,19.4679312 19.34,18.83 C19.66,17.15 20,16.19 20.34,15.96 L23.74,8.31 C23.7,7.83666667 24.4266667,7.47333333 25.92,7.22 L26.4,7.22 L26.4,7.66 C27.86,7.44 28.78,7.31 29.13,7.28 C31.83,7.05 33.24,7.6 33.35,8.91 L33.66,8.91 L33.59,8.14 L34,8 C34.6705278,8.27619321 35.1533594,8.8759605 35.28,9.59 C35.2487217,10.1857386 35.0037496,10.7502396 34.59,11.18 C34.39,11.18 34.26,11.05 34.25,10.75 L33.91,10.75 L33.84,11.68 C32.4733333,13.7266667 31.4733333,14.78 30.84,14.84 C30.28,15.61 29.94,16 29.84,16 L29.79,16.07 Z M31.88,21.43 C31.6884729,21.2769209 31.4546506,21.1861839 31.21,21.17 L31.21,20.71 L31.52,20.71 L32.2,21.11 C32.2229152,21.1944593 32.2034743,21.2847866 32.1478418,21.3523403 C32.0922093,21.4198941 32.0072861,21.4562946 31.92,21.45 L31.88,21.43 Z M34,24 C34.3,24.12 34.48,24.25 34.51,24.37 L34.36,24.37 L34.27,24.37 L34.05,24.55 L34,24 Z M34.21,25.29 L34.21,25.17 L34.6,25.08 L34.6,25.2 L34.21,25.29 Z M35.15,26.34 C35.55,26.27 35.75,26.25 36.49,26.08 L36.49,26.2 L35.07,26.53 C35.0733449,26.4667108 35.0733449,26.4032892 35.07,26.34 L35.15,26.34 Z M36.53,26.93 C36.0504193,26.9402304 35.5737494,27.007367 35.11,27.13 L35.11,27.01 L36.29,26.63 L36.86,26.5 L36.92,26.72 C36.67,26.78 36.85,26.78 36.56,26.93 L36.53,26.93 Z M37.79,26.63 C37.7223304,26.6481315 37.6502073,26.6381877 37.5899688,26.602421 C37.5297302,26.5666544 37.4864744,26.508092 37.47,26.44 L37.83,26.36 C37.8953,26.3343276 37.9689292,26.3413429 38.0282062,26.378885 C38.0874831,26.4164271 38.1252973,26.4799925 38.13,26.55 L37.79,26.63 Z M41.2,22.96 L41.2,22.84 L41.79,22.7 L41.85,22.92 L41.23,22.92 L41.2,22.96 Z M44.84,45.3 C44.8650566,45.1779393 44.8650566,45.0520607 44.84,44.93 L44.97,44.93 C45.0309823,44.9043827 45.10047,44.9089938 45.1575326,44.9424443 C45.2145953,44.9758949 45.2525632,45.034275 45.26,45.1 L45.26,45.22 L44.78,45.33 L44.84,45.3 Z M47.4,23.91 L47.14,23.91 C46.7959827,24.0531884 46.4416415,24.1701879 46.08,24.26 L45.84,24.32 C45.7763463,24.3415458 45.7065751,24.3354174 45.6476522,24.3031048 C45.5887293,24.2707922 45.5460528,24.2152558 45.53,24.15 L47.24,23.76 L47.8,23.5 L47.99,23.71 C47.779283,23.738933 47.5795504,23.821581 47.41,23.95 L47.4,23.91 Z M48.71,23.49 L48.71,23.37 C48.8338793,23.3306134 48.9445684,23.2579737 49.03,23.16 L50.24,22.88 L50.24,23 C49.7172211,23.1159867 49.2053472,23.2765746 48.71,23.48 L48.71,23.49 Z M48.9,21 C48.7736917,21.0464109 48.6580496,21.1178369 48.56,21.21 C48.56,21.13 48.37,21.13 48.06,21.21 C48,20.98 48.9,20.65 50.75,20.21 L51.01,20.15 L51.07,20.37 C49.77,20.75 49.07,20.97 48.9,20.99 L48.9,21 Z M52.16,17.48 C52,19 51.51,19.83 50.58,20 L50.58,19.88 L49.76,20.2 L49.4,20.28 C49.2365292,20.3261583 49.0634708,20.3261583 48.9,20.28 L48.79,20 C49.8746931,18.2917675 51.0636125,16.6519938 52.35,15.09 L52.63,15.09 C52.6659495,15.9137859 52.5012257,16.7339732 52.15,17.48 L52.16,17.48 Z M57.93,12.54 L57.82,12.54 L57.82,12.31 L58.3,12.31 L58.3,12.43 C58.1742321,12.4648433 58.0532993,12.5152319 57.94,12.58 L57.93,12.54 Z M55.55,36.44 C55.3190205,36.3191218 55.0605252,36.2605295 54.8,36.27 L54.8,35.92 C54.8,35.8 54.8733333,35.7166667 55.02,35.67 C55.18,35.67 55.27,35.76 55.29,36.01 C55.4802214,35.7262996 55.7053157,35.4676092 55.96,35.24 L56.21,35.34 C56.12,36.05 55.9,36.42 55.57,36.45 L55.55,36.44 Z M81,9.79 C80.88,9.79 80.65,9.43 80.28,8.67 L80.28,8.44 C80.51,8.44 80.76,8.78 81,9.53 L81,9.79 Z M80.66,7.13 L80.55,7.37 L77.1,5.93 C79.4,6 80.59,6.41 80.66,7.13 Z M66.07,19.67 L65.59,19.67 L65.59,19.44 L66.07,19.44 L66.07,19.66 L66.07,19.67 Z M65.67,12.13 L65.8,12.13 L65.8,12.48 C65.68,12.48 65.53,12.6466667 65.35,12.98 L65.35,12.75 C65.5186508,12.5830097 65.6275982,12.3651149 65.66,12.13 L65.67,12.13 Z M64.67,14.55 L64.67,15.01 L64.54,15.01 L64.54,14.55 L64.67,14.55 Z M64.12,15.42 L64.36,15.42 C64.36,15.8133333 64.2566667,16.02 64.05,16.04 L63.92,16.04 C64.0382148,15.8573447 64.1071178,15.6471906 64.12,15.43 L64.12,15.42 Z M63.73,16.61 L63.84,16.61 L63.84,16.73 L63.63,17.1 L63.39,17.1 L63.39,17 C63.64,17 63.75,16.85 63.73,16.62 L63.73,16.61 Z M63.34,17.69 L63.26,18.29 L63.15,18.29 L63.15,17.7 L63.39,17.7 L63.34,17.69 Z M59.34,28.99 C59.18,29.77 59.0133333,30.17 58.84,30.19 L58.84,30.09 C58.8232588,29.6626629 59.0130333,29.2533453 59.35,28.99 L59.34,28.99 Z M58.6,30.56 L58.6,30.66 C58.6202408,30.7268415 58.6059278,30.7993722 58.5618124,30.8535138 C58.517697,30.9076554 58.4495522,30.9363231 58.38,30.93 L58.38,30.81 C58.38,30.69 58.4533333,30.6066667 58.6,30.56 Z M58.39,33.84 L58.76,33.84 L58.76,33.96 C58.6325007,33.9844412 58.5105134,34.0318807 58.4,34.1 L58.16,34.1 C58.16,33.9666667 58.2333333,33.8833333 58.38,33.85 L58.39,33.84 Z M68.85,30.61 C67.5698561,31.1775673 66.3475158,31.8674361 65.2,32.67 C62.96,33.45 61.86,33.94 61.87,34.13 C60.5463135,34.6319633 59.2539847,35.2130104 58,35.87 C57.7756051,35.8603769 57.5565134,35.7987574 57.36,35.69 C57.3146873,35.2768355 57.5296708,34.8787179 57.9,34.69 C58.2405753,34.6578027 58.58386,34.7092954 58.9,34.84 C59.5225135,34.5733913 60.1686819,34.3658138 60.83,34.22 L60.83,33.99 L60.07,34.05 C60.7413214,33.6332925 61.4596649,33.297618 62.21,33.05 L62.58,33.05 L62.58,33.15 C61.95,33.21 61.58,33.39 61.52,33.73 C61.5181074,33.7955511 61.5469456,33.858223 61.5979617,33.8994283 C61.6489779,33.9406337 61.7163142,33.9556412 61.78,33.94 C62.25,33.63 62.47,33.46 62.47,33.4 C63.3633333,33.24 65.8433333,31.94 69.91,29.5 L69.91,29.73 C69.91,29.83 69.57,30.13 68.91,30.64 L68.85,30.61 Z M62.61,32.61 C63.1925961,32.5649802 63.7410171,32.3173062 64.16,31.91 C64.2236858,31.8943588 64.2910221,31.9093663 64.3420383,31.9505717 C64.3930544,31.991777 64.4218926,32.0544489 64.42,32.12 C63.8336709,32.2705509 63.2738506,32.5099922 62.76,32.83 L62.63,32.83 L62.63,32.61 L62.61,32.61 Z M72.7,24.93 L69.6,27.43 C68.4012669,28.2878244 67.1412187,29.0565541 65.83,29.73 C62.1433333,31.73 59.8466667,32.7833333 58.94,32.89 L58.81,32.89 C58.9233333,32.47 60.5733333,29.1033333 63.76,22.79 C66.0392106,22.4062498 68.2603632,21.7341916 70.37,20.79 L71.12,20.72 C72.3289423,20.505423 73.5712423,20.8306133 74.52,21.61 L74.52,22.07 C73.95,23.67 73.34,24.61 72.67,24.9 L72.7,24.93 Z M66.61,21.5 L67.09,21.5 L67.09,21.62 L66.61,21.62 L66.61,21.5 Z M73.66,20.3 L74.03,20.3 C74.37,20.47 74.55,20.62 74.56,20.74 L74.56,20.84 C74.1850019,20.8542131 73.8336118,20.6572802 73.65,20.33 L73.66,20.3 Z M74.66,14.63 C73.8544325,15.3982015 72.9616877,16.0694382 72,16.63 C70.156838,17.1773876 68.3609804,17.8729898 66.63,18.71 C66.4731656,18.6534302 66.3064006,18.6296066 66.14,18.64 L66.14,18.41 C66.1555596,17.7989133 66.3618564,17.2079952 66.73,16.72 C66.97,15.43 67.24,14.72 67.52,14.55 L70.12,8.74 C70.12,8.4 70.64,8.12 71.76,7.9 L72.13,7.9 L72.13,8.25 C73.23,8.07 73.92,7.96666667 74.2,7.94 C76.2,7.76 77.32,8.17 77.41,9.18 L77.65,9.18 L77.65,8.62 L77.89,8.62 C78.409792,8.80703127 78.7907576,9.25657074 78.89,9.8 C78.8399391,10.258881 78.6270683,10.6846227 78.29,11 C78.13,11 78.04,10.91 78.02,10.66 L77.78,10.66 L77.71,11.36 C76.71,12.93 75.92,13.75 75.45,13.78 C75.03,14.35 74.77,14.64 74.65,14.65 L74.66,14.63 Z M75.75,18.51 L75.75,18.16 L75.99,18.16 L76.51,18.48 C76.518722,18.543343 76.4994543,18.6073467 76.4572133,18.6553477 C76.4149724,18.7033488 76.3539378,18.7305977 76.29,18.73 C76.1419305,18.617161 75.9653023,18.5478951 75.78,18.53 L75.75,18.51 Z M32.36,41.13 L32.12,41.19 L31.91,41.37 C31.9174368,41.435725 31.9554047,41.4941051 32.0124674,41.5275557 C32.06953,41.5610062 32.1390177,41.5656173 32.2,41.54 C32.36,41.54 32.42,41.41 32.39,41.26 L32.39,41.14 L32.36,41.13 Z M31.44,39.29 L31.44,39.41 C31.6,39.41 31.66,39.28 31.63,39.13 L31.63,39.01 C31.5649187,39.0163496 31.5060347,39.0513211 31.469318,39.10543 C31.4326012,39.159539 31.4218573,39.227177 31.44,39.29 Z M38,23.69 L38.28,23.62 L38.22,23.38 L37.94,23.45 L38,23.69 Z M122.55,30.79 C121.317859,31.1329666 120.048487,31.3243797 118.77,31.36 L118.77,31.59 L119.03,31.59 L119.17,31.59 L119.48,31.47 C122.28,31.16 122.61,31.27 122.58,30.96 L122.58,30.85 L122.55,30.79 Z M107.3,32.79 L107.3,33.02 L107.3,32.79 Z M105.55,26.65 L105.3,26.57 C105.158896,26.8895947 105.058121,27.2255104 105,27.57 L105,27.67 C105.2,27.67 105.37,27.33 105.54,26.67 L105.55,26.65 Z M123.13,30.72 L123.13,30.95 L123.54,31.02 L123.54,30.79 L123.13,30.72 Z M103.84,33.1 L103.21,33.03 L103.1,33.27 L103.1,33.39 L106.87,33.07 L106.87,32.84 L103.87,33.1 L103.84,33.1 Z M102.13,24.84 L102.13,24.72 L102,24.72 L101.77,24.87 L101.9,25.09 C102.08,25.09 102.16,24.99 102.14,24.83 L102.13,24.84 Z M124.91,29 L125.09,29 C125.19,29 125.24,28.91 125.23,28.76 L125.13,28.54 C124.619788,28.5371732 124.117285,28.6645198 123.67,28.91 L123.67,28.8 L122.9,28.87 C122.9,28.64 122.82,28.52 122.71,28.53 L122.31,28.53 C121.84,28.53 121.62,28.53 121.39,28.73 C121.39,28.65 121.39,28.61 121.31,28.61 L120.86,28.61 L120.6,28.76 C120.6,28.68 120.6,28.64 120.52,28.64 L120.36,28.78 L120.36,28.66 L119.74,28.66 L119.59,28.66 L119.59,28.89 L119.91,28.97 L120.21,28.97 C120.31254,29.0301175 120.432051,29.0547227 120.55,29.04 L120.81,28.91 L120.81,29 C120.001178,29.2103735 119.179408,29.3673783 118.35,29.47 C118.279899,29.410134 118.19205,29.3749941 118.1,29.37 C118.046933,29.3674131 117.997076,29.3438176 117.961431,29.3044199 C117.925785,29.2650221 117.90728,29.2130603 117.91,29.16 L118.43,29.09 C118.544913,29.1264484 118.661759,29.1564946 118.78,29.18 C119.2,28.97 119.22,28.89 119.44,28.87 L119.44,28.64 C118.562419,28.801454 117.672296,28.8851122 116.78,28.89 L116.7,28.89 L116.7,28.66 C119.01,28.38 118.24,28.54 119.03,28.32 C119.03,28.4 119.03,28.44 119.11,28.44 C119.195387,28.3518541 119.308251,28.2954219 119.43,28.28 L119.59,28.28 C120.496317,28.3077081 121.401196,28.1895337 122.27,27.93 L122.27,28.03 L122.53,27.9 L122.77,27.9 C122.77,27.67 123.11,27.63 123.23,27.62 L123.23,27.37 C120.42,27.94 119.68,27.78 118.9,28 L118.9,27.9 C118.572434,27.975821 118.235454,28.0027793 117.9,27.98 C117.810604,28.0070575 117.730804,28.0591013 117.67,28.13 C117.67,28.05 117.67,28.01 117.58,28.01 L115.19,28.4 C115.19,28.33 115.19,28.3 115.1,28.31 C114.265549,28.5543431 113.407316,28.7085569 112.54,28.77 C112.428446,28.790287 112.322657,28.8346504 112.23,28.9 C112.23,28.83 112.23,28.8 112.1,28.81 L111.1,28.89 L110.42,29.06 C110.42,28.99 110.42,28.96 110.29,28.97 C109.963351,29.0645053 109.628547,29.1281181 109.29,29.16 C109.12,29.16 109.37,29.16 109.29,29.06 L109.08,29.18 C108.78,29.18 108.94,29.18 107.92,29.18 C106.12,29.4 106.32,29.43 106.12,29.44 L105.45,29.44 C105.456895,29.4689306 105.449053,29.4993996 105.429047,29.5214061 C105.409041,29.5434127 105.379455,29.5541149 105.35,29.55 C104.59,29.45 104.19,29.33 104.19,29.19 C104.29,28.4633333 104.466667,28.09 104.72,28.07 L104.85,28.07 L104.74,28.31 L104.87,28.31 C105.11,28.18 105.22,28.06 105.21,27.95 L105.21,27.7 L104.97,27.7 L104.97,27.47 C104.947611,27.3098614 104.971917,27.1466639 105.04,27 L105.59,26.11 L105.59,26.34 L105.85,26.34 L105.85,26.11 L105.7,25.9 C105.828822,25.7684473 105.991464,25.6750148 106.17,25.63 L106.17,25.51 L105.82,25.51 L105.82,25.16 C106.270422,24.3536265 106.606955,23.4887379 106.82,22.59 L107.07,22.69 C107.23,22.69 107.3,22.59 107.29,22.42 L107.05,22.42 L107.05,22.32 C107.032741,22.1514294 107.063965,21.981435 107.14,21.83 C107.486169,21.5209218 107.676759,21.0737686 107.66,20.61 C107.73,20.61 107.77,20.61 107.78,20.72 C108.11,20.53 108.36,20.04 108.54,19.22 C109.442414,17.2027979 110.200975,15.124275 110.81,13 C112.81,7.48 112.81,6.9 113.06,5.59 L112.82,5.59 C112.838199,5.75538232 112.806875,5.92244418 112.73,6.07 C112.607393,6.01402446 112.474737,5.98341137 112.34,5.98 L112.34,5.88 C112.350016,5.25847594 112.564385,4.65753858 112.95,4.17 L113,4.17 L113.21,4.97 L113.45,4.97 C113.490084,4.63266664 113.553571,4.29852787 113.64,3.97 C113.64,3.85 113.54,3.77 113.35,3.76 L113.12,3.91 C113.12,3.74 113.12,3.3 113.12,2.61 L113,2.61 C112.838556,2.48123333 112.72571,2.30138444 112.68,2.1 L111.35,2.23 C111.324848,2.08548221 111.274048,1.94662875 111.2,1.82 C111.2,1.7 111.49,1.58 112.1,1.46 L112.37,1.56 L112.62,1.41 C112.62,1.49 112.68,1.53 112.77,1.52 L113.02,1.37 C113.02,1.45 113.08,1.49 113.17,1.48 L113.29,1.48 L113.29,1.21 C113.1,1.21 112.61,1.21 111.83,1.21 L111.58,1.38 L111.58,1.2 C105.326667,1.71333333 101.776667,2.01 100.93,2.09 C100.82,2.09 100.38,2.09 99.61,2.09 C99.61,2.19 99.53,2.25 99.34,2.27 L99.07,2.15 L98.16,2.38 C97.8007128,2.41203699 97.4392872,2.41203699 97.08,2.38 C96.933936,2.49635922 96.7562245,2.56605001 96.57,2.58 L99.24,2.41 C99.0477499,2.5404655 98.8222429,2.61332161 98.59,2.62 C98.40829,2.64469596 98.2233719,2.61329478 98.06,2.53 C97.4047444,2.73177112 96.7365397,2.88879923 96.06,3 L95.79,2.9 L91.43,3.57 C91.2455365,3.48569368 91.0412098,3.45452519 90.84,3.48 C90.4471594,3.5315408 90.0591971,3.61515335 89.68,3.73 L87.57,4.61 L87.73,4.87 C87.8832893,4.84276388 88.0295274,4.78494883 88.16,4.7 L88.91,4.77 L88.82,5.47 C88.2184039,5.6839112 87.7664986,6.1885388 87.62,6.81 C86.62,7.27 86.07,7.59 86.07,7.81 L86.07,7.93 L86.23,7.93 L86.51,7.78 L86.84,8.17 L86.84,8.71 C86.84,8.87666667 85.1033333,12.5433333 81.63,19.71 C78.63,26.61 77.03,30.38 76.88,31.06 C75.88,31.35 75.25,31.77 75.07,32.33 C75.07,32.51 75.4,32.63 75.99,32.67 L75.99,32.94 L75.72,33.39 L75.72,33.93 C75.72,34.21 76.4733333,34.4233333 77.98,34.57 C77.98,34.48 77.98,34.42 78.12,34.41 C78.1100479,35.0857048 78.0159909,35.7575406 77.84,36.41 L78,36.41 C78.5295492,35.8930129 78.8799399,35.2202627 79,34.49 L79.13,34.49 C79.28,34.49 79.44,34.65 79.62,35.01 C79.4333333,35.0833333 78.7666667,36.5666667 77.62,39.46 L77.78,39.72 L78,39.72 C79.3666667,36.2533333 80.2266667,34.3366667 80.58,33.97 C82.38,33.81 85.49,33.4766667 89.91,32.97 L90.19,32.8 C90.1879103,32.8426821 90.2069304,32.8836654 90.240876,32.9096238 C90.2748215,32.9355821 90.3193565,32.9431998 90.36,32.93 L90.65,32.93 L90.93,32.76 C90.9279103,32.8026821 90.9469304,32.8436654 90.980876,32.8696238 C91.0148215,32.8955821 91.0593565,32.9031998 91.1,32.89 L94.45,32.6 C95.34,32.53 95.75,32.26 95.72,31.8 C95.72,31.68 96.23,31.54 97.29,31.39 C97.4469413,31.388239 97.6028682,31.4153567 97.75,31.47 C97.75,31.39 98.27,31.3 99.33,31.21 C99.33,30.65 99.54,30.35 99.85,30.32 L99.85,30.05 C99.5091745,30.0893788 99.173782,30.1665191 98.85,30.28 C98.402225,30.2743148 97.9563476,30.2206754 97.52,30.12 C97.3887024,30.2033405 97.2427914,30.2610263 97.09,30.29 L94.76,30.36 L94.48,30.51 C94.48,30.4233333 94.4233333,30.3866667 94.31,30.4 L94.18,30.4 L93.88,30.55 C93.88,30.47 93.63,30.4 93.14,30.34 L92.84,30.52 L92.26,30.52 L92.26,30.37 C95.26,30.0433333 96.74,29.6366667 96.7,29.15 C96.7803571,29.1307515 96.8650792,29.1508455 96.9282329,29.2041314 C96.9913865,29.2574173 97.0254513,29.3375497 97.02,29.42 L97.9,29.2 L97.9,28.93 L90.72,29.13 C90.72,29.22 90.72,29.28 90.58,29.29 L89.7,29.22 C89.4980743,29.2318702 89.3037607,29.3012679 89.14,29.42 L88.81,29.3 C88.1338767,29.3419736 87.4637683,29.4525415 86.81,29.63 C86.144365,29.5775492 85.475635,29.5775492 84.81,29.63 L83.2,29.77 L82.45,29.69 C82.45,29.21 83.34,26.88 85.24,22.69 C85.5213937,21.6937473 86.0513055,20.7853272 86.78,20.05 C86.9395774,20.0522289 87.0966775,20.0897963 87.24,20.16 L88.39,19.77 L88.98,19.86 C90.1625293,19.730483 91.3226499,19.4446562 92.43,19.01 C92.682018,18.9736994 92.9390524,18.9976893 93.18,19.08 L94.06,18.87 L96.67,18.65 C97.8996234,18.5332675 99.1132097,18.2851863 100.29,17.91 L100.29,17.64 C99.81,17.64 99.55,17.64 99.54,17.41 C99.54,17.05 99.16,16.9 98.48,16.95 L98.48,16.68 L99.2,16.47 L101.08,16.31 L101.08,16.04 C101.01,16.04 100.62,16.04 99.92,16.04 L99.92,15.75 L100.65,15.68 C100.85,15.68 100.93,15.57 100.91,15.38 C99.91,15.38 99.44,15.38 99.43,15.23 C92.61,15.5633333 89.19,15.6266667 89.17,15.42 C89.0152882,15.4535888 88.8690024,15.5182267 88.74,15.61 L88.56,15.33 C90.3666667,11.49 91.4266667,9.55666667 91.74,9.53 C91.7215539,9.78485091 91.6427148,10.0316516 91.51,10.25 L91.51,10.37 L91.8,10.37 C92.52,8.66 93.12,7.77 93.63,7.73 C95.77,7.54 93.33,7.4 97.92,6.73 C98.0459407,6.79883374 98.1865174,6.83654944 98.33,6.84 C100.13,6.48 102.636667,6.1 105.85,5.7 L105.85,5.43 L104.14,5.59 L104.14,5.32 C104.326224,5.30605001 104.503936,5.23635922 104.65,5.12 L104.65,5.27 C104.792337,5.23596772 104.925469,5.17110836 105.04,5.08 C105.269656,5.04121095 105.505617,5.068971 105.72,5.16 C106.188902,5.02836098 106.666861,4.93143219 107.15,4.87 L108.22,4.77 C108.48,4.6 108.6,4.45 108.59,4.31 L108.59,4.19 C108.275402,4.2139707 107.958997,4.19377465 107.65,4.13 C107.641586,4.0583059 107.662231,3.98622783 107.707325,3.92985989 C107.752419,3.87349195 107.818207,3.8375286 107.89,3.83 L109.89,3.64 L110.8,3.41 C110.8,3.51 110.86,3.55 110.93,3.55 C111.072337,3.51596772 111.205469,3.45110836 111.32,3.36 L111.47,3.36 C111.308401,3.71232762 111.174658,4.07677643 111.07,4.45 L110.81,4.45 C110.796354,4.28082899 110.745107,4.11683937 110.66,3.97 L110.53,3.97 C108.11,10.72 107.03,13.86 104.79,19.04 C104.38,20.36 104.04,21.1 103.74,21.26 C103.738107,21.3255511 103.766946,21.388223 103.817962,21.4294283 C103.868978,21.4706337 103.936314,21.4856412 104,21.47 C104.051587,22.1455543 103.890757,22.820341 103.54,23.4 C102.54,26.4 101.82,28.01 101.46,28.31 L101.69,29.72 C101.698722,29.783343 101.679454,29.8473467 101.637213,29.8953477 C101.594972,29.9433488 101.533938,29.9705977 101.47,29.97 L101.23,29.97 C101.23,29.58 101.05,29.39 100.8,29.42 L100.67,29.42 C100.334546,29.9485366 100.091099,30.5301055 99.95,31.14 L100.19,31.14 C100.473685,30.9994294 100.649466,30.7064608 100.64,30.39 L101.12,30.39 L101.4,30.49 C101.211643,30.7346729 101.103383,31.0315132 101.09,31.34 L101.22,31.56 L100.9,32.31 L100.9,32.43 C101.223358,32.4169121 101.542365,32.5080572 101.81,32.69 C102.077724,32.6528992 102.332021,32.5498059 102.55,32.39 C102.83,32.39 103.87,32.39 105.67,32.39 L106.57,32.08 C107.21422,32.0829512 107.858234,32.0562563 108.5,32 L108.89,32 L109.1,31.86 L109.1,31.98 C109.730501,31.8875454 110.371585,31.8942937 111,32 L111,32.12 L110.45,32.12 L110.45,32.35 C110.610557,32.3394637 110.764068,32.2801525 110.89,32.18 C111.03,32.18 111.11,32.25 111.12,32.41 C110.864199,32.4370619 110.612469,32.4941206 110.37,32.58 L110.13,32.5 C109.75,32.6 109.83,32.63 109.57,32.65 L109.19,32.58 C109.196183,32.6070888 109.189508,32.6355149 109.171913,32.6570197 C109.154318,32.6785245 109.127777,32.6906967 109.1,32.69 C109.096273,32.7503901 109.120084,32.8092213 109.164766,32.8500179 C109.209448,32.8908146 109.270197,32.9091907 109.33,32.9 L109.72,32.9 L111.72,32.72 L112.49,32.55 C112.49,32.62 112.49,32.65 112.59,32.64 L112.96,32.5 L113.66,32.44 C114.2,32.44 114.19,32.36 115.36,32.17 C115.36,32.1 115.36,32.07 115.43,32.06 L115.43,32.16 C116.219465,32.0642757 117.001341,31.9139149 117.77,31.71 L117.77,31.77 C118.25,31.66 117.98,31.69 118.11,31.59 C118.11,31.67 118.11,31.71 118.19,31.71 L118.53,31.71 L118.53,31.46 L117.85,31.46 L117.78,31.46 L117.69,31.46 C117.439514,31.5069182 117.184745,31.5270316 116.93,31.52 L115.22,31.61 L115.22,31.49 L116.22,31.36 L116.56,31.36 L116.76,31.22 L116.76,31.34 C118.1,31.23 118.58,31.56 124.76,30.24 C125.1,30.24 125.07,29.93 125.28,29.35 C125.165494,29.359878 125.050635,29.3355139 124.95,29.28 C124.369269,29.4210053 123.776749,29.5080421 123.18,29.54 C123.1,29.54 123.03,29.47 123,29.33 L123,29.23 L124,29.23 C124.354446,29.1923315 124.69605,29.0761858 125,28.89 C125,28.97 124.81,29.02 124.93,29.01 L124.91,29 Z M79,29.77 L78.56,29.77 C78.7066071,29.0760751 78.9418711,28.4038922 79.26,27.77 L79.55,27.77 C79.4586848,28.4586196 79.2736374,29.131519 79,29.77 Z M79.53,27.65 L79.53,27.53 C79.53,27.38 79.61,27.28 79.82,27.23 L79.82,27.35 C79.82,27.53 79.74,27.63 79.53,27.65 Z M85.35,32.15 L85.35,32.27 L84.62,32.34 L84.62,32.22 L85.35,32.15 Z M84.47,32.08 C84.47,32.23 84.26,32.4 83.77,32.56 L82.88,32.49 L82.59,32.49 L82.59,32.22 L84.5,32.04 L84.47,32.08 Z M90.4,5 L90,5 L90,4.85 C90,4.7 90.07,4.6 90.26,4.55 L90.42,4.55 L90.72,4.67 C90.7321466,4.74735375 90.7087849,4.82606233 90.6564038,4.88426345 C90.6040228,4.94246458 90.5282014,4.97395946 90.45,4.97 L90.4,5 Z M97.06,3.7 L97.2,3.7 L97.2,3.97 L96.8,3.97 C96.7915856,3.8983059 96.8122305,3.82622783 96.8573249,3.76985989 C96.9024192,3.71349195 96.9682075,3.6775286 97.04,3.67 L97.06,3.7 Z M95.38,4.29 L94.72,4.22 L94.72,4 C95.2941454,3.96163078 95.861572,3.85418905 96.41,3.68 C96.41,3.78 96.51,3.82 96.68,3.8 L96.68,4.07 L96.42,4.07 C96.23829,4.09469596 96.0533719,4.06329478 95.89,3.98 C95.7378327,4.08357913 95.5628464,4.14877011 95.38,4.17 L95.38,4.29 Z M96.21,6.7 L96.21,6.58 L97.28,6.48 L97.28,6.6 L96.21,6.7 Z M97.36,5.77 L97.36,5.62 L97.88,5.62 L97.88,5.77 L97.36,5.77 Z M97.48,3.94 L97.34,3.94 L97.46,3.65 L98.65,3.54 L98.65,3.69 C98.2506403,3.73681767 97.8559192,3.81709993 97.47,3.93 L97.48,3.94 Z M98.09,6.51 L98.09,6.24 L98.61,6.24 C98.79,6.24 98.8833333,6.32333333 98.89,6.49 L98.11,6.56 L98.09,6.51 Z M101.25,2.21 L100.58,2.4 L100.46,2.4 C100.057456,2.43569261 99.6525437,2.43569261 99.25,2.4 C100.12,2.34 100.95,2.28 101.25,2.23 L101.25,2.21 Z M100.53,5.21 L100.53,5.33 L99.61,5.41 L99.61,5.29 L100.53,5.21 Z M102.04,5.93 C102.04,5.82 101.85,5.74 101.49,5.71 L100.57,5.97 L99.86,5.97 C99.7,5.86 99.62,5.78 99.61,5.73 L100.43,5.73 L102.27,5.43 L103.21,5.43 L103.21,5.58 C102.808814,5.6148262 102.412916,5.69534773 102.03,5.82 L102.04,5.93 Z M111.53,3.48 L111.74,3.48 C112.059513,3.16238382 112.436105,2.90792977 112.85,2.73 C112.64494,3.94606482 112.100735,5.07953452 111.28,6 L110.76,5.68 C111.067354,4.95856495 111.32463,4.21680805 111.53,3.46 L111.53,3.48 Z M109.93,6.23 L110.06,6.23 C109.88,6.57 109.72,6.74 109.59,6.75 L109.59,6.4 C109.721461,6.37750897 109.845213,6.32250803 109.95,6.24 L109.93,6.23 Z M108.93,8.7 C109.010054,8.07210865 109.258885,7.47767954 109.65,6.98 L109.65,7 C109.52,7.93 109.31,8.43 109.04,8.46 L109.04,9.05 C108.856854,9.25996325 108.744841,9.52249343 108.72,9.8 L108.59,9.8 L108.52,8.99 C108.67,8.99 108.79,8.84 108.87,8.6 L108.93,8.7 Z M108.53,10.04 C108.491601,10.3851667 108.400545,10.7224127 108.26,11.04 L108.13,11.04 L108.13,10.69 C108.31,10.28 108.46,10.07 108.56,10.07 L108.53,10.04 Z M101,31.8 L101,31.7 L101.24,31.7 L101.24,32.05 C101.11,32.05 101.02,31.98 100.98,31.82 L101,31.8 Z M111.74,32.08 C111.74,32 111.74,31.96 111.61,31.97 L111,32 L111,31.9 L112.43,31.78 L112.43,31.9 C112.167331,31.880126 111.905038,31.9430763 111.68,32.08 L111.74,32.08 Z M111.09,30.1 L110.29,30.17 L110.29,30 L111,30 L111.63,29.84 C111.63,29.91 111.63,29.94 111.76,29.93 C112.51,29.8 112.44,29.76 112.76,29.73 C112.88,29.73 112.96,29.8 112.97,29.94 L111.04,30.11 L111.09,30.1 Z M113.89,29.86 C113.630183,29.8072496 113.364803,29.7870942 113.1,29.8 L113.1,29.7 L113.82,29.63 L113.82,29.73 C113.75,29.73 114.02,29.73 113.89,29.85 L113.89,29.86 Z M113.95,29.73 L113.95,29.63 L114.34,29.63 L114.34,29.73 L113.95,29.73 Z M114.82,29.66 L114.82,29.56 C114.923866,29.5328062 115.019817,29.4814039 115.1,29.41 C115.177533,29.3986605 115.256271,29.4203286 115.317086,29.4697407 C115.377901,29.5191528 115.415228,29.5917872 115.42,29.67 L114.82,29.66 Z M115.93,29.52 L115.93,29.4 L116.41,29.4 L116.41,29.52 L115.93,29.52 Z M116.59,29.46 C116.59,29.32 116.59,29.24 116.76,29.22 L116.92,29.43 C116.914062,29.4060853 116.918189,29.380782 116.931418,29.3599935 C116.944647,29.339205 116.965821,29.3247496 116.99,29.32 L117.11,29.54 L116.59,29.47 L116.59,29.46 Z M109.59,32.46 L109.59,32.23 L109.52,32.23 L109.52,32.46 L109.59,32.46 Z M125.96,28.22 C126.03,28.22 126.07,28.13 125.89,28.1 C125.71,28.07 125.98,28.22 125.8,28.23 L125.8,28.31 L125.9,28.24 L125.8,28.32 L125.6,28.57 L125.99,28.43 L125.99,28.2 L125.96,28.22 Z M126.64,28.75 L126.57,28.75 L126.57,28.98 L127.12,28.98 C127.12,28.83 126.75,28.78 126.63,28.78 L126.64,28.75 Z" id="Shape" fill="#000000"></path>
            <path d="M90,11.13 L90,11.28 L90.31,11.28 C90.3128185,11.1322966 90.3433475,10.9864358 90.4,10.85 L90.4,10.58 C90.27,10.58 90.14,10.79 90.02,11.16 L90,11.13 Z M87,4 L87,3.73 L86.56,3.73 L86.56,4 L87,4 Z M78.48,20 C77.8363425,18.8980542 77.0457595,17.8887993 76.13,17 C76.13,16.68 76.63,16.21 77.72,15.58 L80.84,13 C81.6633735,11.714852 82.09108,10.2161405 82.07,8.69 L82.07,8.23 C81.95,6.85 80.95,5.74 79.07,4.89 C77.95,4.13666667 75.95,3.72 73.07,3.64 C69.8297363,4.06378669 66.6633026,4.93194811 63.66,6.22 C62.4933612,7.04999657 61.2814922,7.81450896 60.03,8.51 L60.03,8.74 C60.1606555,8.71489493 60.2838127,8.66015841 60.39,8.58 C60.4536858,8.56435878 60.5210221,8.57936634 60.5720383,8.62057167 C60.6230544,8.66177699 60.6518926,8.72444894 60.65,8.79 L60.88,8.67 L60.99,8.67 L60.99,8.77 C60.2375294,9.5400774 59.3908327,10.2120589 58.47,10.77 L58.6,11.01 L58.49,11.01 L58.21,10.91 C58.21,10.99 58.1,11.05 57.87,11.07 L57.87,11.17 L58.14,11.51 C58.0052633,11.5065886 57.8726065,11.4759755 57.75,11.42 C57.2998949,11.4828859 56.887807,11.7066922 56.59,12.05 L56.75,11.36 C57.2635608,9.21790624 57.6508941,7.04750416 57.91,4.86 L57.91,4.74 C57.478416,4.45419025 57.0966743,4.09947445 56.78,3.69 C56.7907979,3.52684513 56.7907979,3.36315487 56.78,3.2 L56.78,3.1 L56.67,3.1 C55.4366667,4.94666667 53.0666667,8.09666667 49.56,12.55 C46.8933333,15.7166667 45.5133333,17.4766667 45.42,17.83 C44.33,18.96 43.81,19.64 43.86,19.83 C43.57,20.02 43.45,20.2 43.5,20.41 C43.4668539,20.4224193 43.4299156,20.4195714 43.3990649,20.4022179 C43.3682143,20.3848644 43.3465988,20.3547759 43.34,20.32 C42.8785706,21.0716429 42.1248576,21.5970678 41.26,21.77 L40.26,21.99 C40.1964159,21.9994822 40.1397023,22.0351429 40.1036049,22.088339 C40.0675075,22.1415352 40.0553214,22.207411 40.07,22.27 L40.07,22.39 L40.43,22.31 L40.43,22.41 L39.61,22.73 L38.16,23.07 L37.4,23.07 C37.29,23.18 38.01,23.07 37.73,23.13 L36.73,23.35 C36.15,23.48 35.84,23.43 35.73,23.2 L35.62,23.2 C35.6380028,23.2789872 35.6380028,23.3610128 35.62,23.44 L35.56,23.21 L34.8,23.39 C34.7466667,23.0366667 33.7166667,21.75 31.71,19.53 C31.71,19.1 32.38,18.48 33.83,17.67 L38,14.14 C38.9133333,12.9666667 39.4566667,11.0833333 39.63,8.49 L39.57,7.88 C39.41,6.05 38.09,4.58 35.57,3.44 C34.1,2.44 31.45,1.91 27.63,1.83 C23.3774951,2.39386749 19.2201968,3.52737035 15.27,5.2 C13.7376768,6.29406739 12.141514,7.2958432 10.49,8.2 L10.49,8.52 C10.6614775,8.49075563 10.8249634,8.42604245 10.97,8.33 C11.0509608,8.3082667 11.1374239,8.32537039 11.2040126,8.37629119 C11.2706014,8.42721199 11.3097616,8.50617321 11.31,8.59 L11.63,8.41 L11.79,8.41 L11.79,8.56 C10.7789964,9.55067074 9.65844052,10.4229597 8.45,11.16 L8.63,11.44 L8.49,11.44 L8.15,11.32 C8.15,11.41 8,11.48 7.67,11.51 L7.67,11.68 L8.04,12.09 C7.86851924,12.0884882 7.69887139,12.0545586 7.54,11.99 C6.63508265,12.1778147 5.85718943,12.7511914 5.41,13.56 L5.59,13.84 C5.90172295,13.5070507 6.26256714,13.2237712 6.66,13 L6.66,13.46 C6.49039319,13.4956886 6.3280833,13.5599362 6.18,13.65 L6.56,14.23 C7.2834454,13.4646262 8.0997816,12.7927446 8.99,12.23 C9.43,12.34 9.66,12.48 9.67,12.63 L10.01,12.63 C12.1732521,10.977486 14.5826035,9.6749515 17.15,8.77 L17.15,9.09 C16.71,9.75666667 16.4133333,10.09 16.26,10.09 C16.2707291,10.3063893 16.3514443,10.5134414 16.49,10.68 C16.53,11.08 15.46,13.78 13.28,18.78 C8.42666667,30.3466667 4.30666667,38.91 0.92,44.47 C0.951123402,44.6334002 1.01956915,44.7874031 1.12,44.92 C1.67863238,44.8286325 2.21281437,44.6244865 2.69,44.32 L2.87,44.32 L2.87,44.64 L3.18,44.64 L3.5,44.46 C3.5,44.55 3.61,44.6 3.83,44.58 L3.83,44.9 C3.78868006,45.4117385 3.60892902,45.9025972 3.31,46.32 C2.80892007,47.0487223 2.44308841,47.8616815 2.23,48.72 L2.23,48.87 L2.54,48.87 C3.75791013,47.5476836 4.78761315,46.0636999 5.6,44.46 C8.70383719,43.6319945 11.718432,42.4998466 14.6,41.08 C16.3091813,41.0323557 17.9630056,40.4636355 19.34,39.45 L19.34,39.28 L18.56,39.51 L18.38,39.51 L18.38,39.34 C19.5011232,39.2633315 20.5878219,38.9205244 21.55,38.34 C24.5233333,36.0466667 26.77,34.4233333 28.29,33.47 C31.41,31.1766667 33.4366667,28.9433333 34.37,26.77 L34.89,26.65 C35.1398102,26.663777 35.3901898,26.663777 35.64,26.65 C35.64,26.57 35.64,26.52 35.74,26.5 C36.44,26.43 36.1,26.5 36.55,26.44 L37.69,26 L37.89,26 L37.8,26.06 C37.9420356,26.0872769 38.0879644,26.0872769 38.23,26.06 L38.31,26.4 L33,34.85 L31.82,36.33 L31.24,38.27 L31.35,38.27 L31.93,38.03 L31.74,38.78 L31.8,39 L31.96,39.2 C31.89,39.2 31.86,39.27 31.88,39.35 L31.88,39.47 L32.12,39.41 C32.4733333,39.1033333 32.6233333,38.8233333 32.57,38.57 C32.817945,38.633874 33.0751037,38.654176 33.33,38.63 L33.33,38.75 C33.1,38.81 32.98,38.99 32.96,39.31 L32.96,39.43 L33.09,39.43 C35.03,37.31 39.78,30.08 43.59,25.16 C43.47,24.6266667 45.47,23.8866667 49.59,22.94 L49.72,22.94 C49.8666667,23.6066667 49.5333333,25.1633333 48.72,27.61 C48.4252441,28.383346 48.2075224,29.1838917 48.07,30 C47.6675982,31.0436415 47.3596959,32.1212996 47.15,33.22 L45.69,38 C44.7342876,40.4980588 44.0112197,43.0790094 43.53,45.71 C43.6619726,45.6830612 43.7980274,45.6830612 43.93,45.71 L44.14,45.53 C44.1465988,45.5647759 44.1682143,45.5948644 44.1990649,45.6122179 C44.2299156,45.6295714 44.2668539,45.6324193 44.3,45.62 L44.22,45.28 L44.85,45.28 C45.04,45.28 45.19,45 45.33,44.57 C45.33,43.93 45.43,43.57 45.72,43.51 C45.8675578,42.7109514 46.1092414,41.9321931 46.44,41.19 C46.5936194,40.2912752 46.8660041,39.4169537 47.25,38.59 C47.8,36.59 48.25,35.59 48.46,35.53 L48.52,35.77 L48.12,36.77 C47.6004846,39.2766837 46.8917895,41.740402 46,44.14 L46.21,45.03 L46.34,45.03 C48.0733333,41.3033333 50.5666667,33.9233333 53.82,22.89 C53.892847,21.9595547 54.4105411,21.1215606 55.21,20.64 L55.02,20.44 L55.02,20.34 C55.3248015,20.2929097 55.6020518,20.1365121 55.8,19.9 C55.8,19.82 55.46,19.69 54.8,19.53 L56.42,12.53 C56.5990786,12.3372279 56.8085165,12.1750824 57.04,12.05 L57.04,12.4 C56.9093445,12.4251051 56.7861873,12.4798416 56.68,12.56 L57,13 C57.5444437,12.404772 58.1589092,11.8776076 58.83,11.43 C59.17,11.52 59.33,11.64 59.35,11.75 L59.59,11.75 C61.231176,10.5072926 63.0565504,9.52881092 65,8.85 L65,9.08 C64.6733333,9.57333333 64.45,9.82333333 64.33,9.83 C64.3431859,9.98985929 64.3946331,10.144201 64.48,10.28 C63.837957,12.3928384 63.0321827,14.452411 62.07,16.44 C59.3597612,23.1566939 56.2164894,29.6904236 52.66,36 C52.6909117,36.1244789 52.7489639,36.2405833 52.83,36.34 C53.2481114,36.2710214 53.6468656,36.1142462 54,35.88 L54.11,35.88 L54.11,36.11 L54.37,36.11 L54.6,35.99 C54.6,36.0566667 54.6833333,36.0833333 54.85,36.07 L54.85,36.32 C54.8152973,36.703078 54.677026,37.0694968 54.45,37.38 C54.0534549,37.9270627 53.7649606,38.5447798 53.6,39.2 L53.6,39.32 L53.84,39.32 C54.7649033,38.3162915 55.5457164,37.1888243 56.16,35.97 C58.5195708,35.3248708 60.8104562,34.4507172 63,33.36 C64.3050007,33.3261428 65.5683241,32.8934021 66.62,32.12 L66.62,32 L66.01,32.18 L65.9,32.18 L65.9,32.06 C66.7498327,31.9977529 67.5725786,31.7337886 68.3,31.29 C70.55,29.56 72.3,28.29 73.42,27.59 C77,25 78.68,22.46 78.48,20 Z M77.86,20.16 L77.94,21.1 C77.83,21.33 77.71,21.45 77.6,21.46 L77.46,19.86 C77.72,19.95 77.85,20.05 77.86,20.16 Z M7.31,12.62 L7.15,12.62 L7.15,12.33 L7.79,12.27 L7.79,12.42 C7.62192057,12.4502906 7.46191045,12.5149756 7.32,12.61 L7.31,12.62 Z M4.17,44 C3.86047306,43.8445934 3.51589366,43.7722317 3.17,43.79 L3.17,43.33 C3.17,43.15 3.25,43.03 3.48,42.99 C3.71,42.95 3.81,43.12 3.82,43.42 C4.08295179,43.0581231 4.38107126,42.7231574 4.71,42.42 L5.05,42.56 C4.94,43.49 4.65,43.97 4.19,44 L4.17,44 Z M37.72,8.9 C37.56,8.9 37.24,8.42 36.79,7.45 L36.79,7.16 C37.09,7.16 37.4,7.62 37.72,8.61 L37.72,8.9 Z M37.27,5.42 L37.14,5.73 L32.58,3.83 C35.62,3.93 37.1833333,4.46 37.27,5.42 Z M18,22 L17.36,22.06 L17.36,21.77 L18,21.71 L18,22 Z M17.48,12.08 L17.64,12.08 L17.64,12.54 C17.49,12.54 17.3,12.77 17.05,13.2 L17.05,12.88 C17.34,12.54 17.49,12.27 17.47,12.09 L17.48,12.08 Z M16.13,15.27 L16.19,15.88 L16.03,15.88 L16,15.25 L16.13,15.27 Z M15.42,16.41 L15.73,16.41 C15.73,16.91 15.56,17.18 15.31,17.2 L15.15,17.2 C15.3113516,16.9742104 15.4050098,16.7071111 15.42,16.43 L15.42,16.41 Z M14.92,18 L15.1,18 L15.1,18.15 L14.81,18.63 L14.5,18.63 L14.5,18.48 C14.6271183,18.48973 14.7512609,18.4382809 14.8342304,18.3414832 C14.9171999,18.2446854 14.9490571,18.1141347 14.92,17.99 L14.92,18 Z M14.4,19.43 L14.31,20.19 L14.15,20.19 L14.08,19.44 L14.4,19.44 L14.4,19.43 Z M9.17,34.25 C8.96,35.25 8.74,35.82 8.51,35.84 L8.51,35.69 C8.47618364,35.1277225 8.72810225,34.5862855 9.18,34.25 L9.17,34.25 Z M8.17,36.33 L8.17,36.48 C8.19291517,36.5644593 8.17347431,36.6547866 8.11784181,36.7223403 C8.0622093,36.7898941 7.97728609,36.8262946 7.89,36.82 L7.89,36.67 C7.89,36.49 7.98333333,36.3766667 8.17,36.33 Z M7.89,40.64 L8.37,40.64 L8.37,40.81 C8.19852251,40.8392444 8.03503658,40.9039575 7.89,41 L7.58,41 C7.58,40.84 7.66,40.72 7.86,40.66 L7.89,40.64 Z M21.68,36.38 C19.9861072,37.1139889 18.3767175,38.0293293 16.88,39.11 C13.9666667,40.1366667 12.5233333,40.7666667 12.55,41 C10.7829372,41.6643328 9.05660497,42.4323336 7.38,43.3 C7.08317006,43.2955491 6.79171708,43.2201142 6.53,43.08 C6.491811,42.5450494 6.76927985,42.0370079 7.24,41.78 C7.6880835,41.7451846 8.13787123,41.8207214 8.55,42 C9.36213298,41.6359956 10.2100673,41.3578196 11.08,41.17 L11.08,40.85 L10.08,40.93 C10.9586717,40.3849305 11.8984774,39.9452357 12.88,39.62 L13.36,39.62 L13.36,39.77 C12.53,39.84 12.07,40.09 11.97,40.52 C11.97,40.72 12.1,40.8 12.31,40.78 C12.93,40.39 13.24,40.16 13.23,40.09 C14.41,39.8633333 17.68,38.1533333 23.04,34.96 L23.04,35.25 C23.04,35.39 22.59,35.78 21.67,36.45 L21.68,36.38 Z M13.46,39.08 C14.2164976,39.0194016 14.9261511,38.6894127 15.46,38.15 C15.68,38.15 15.8,38.22 15.81,38.41 C15.0288552,38.6175168 14.2884197,38.9556152 13.62,39.41 L13.46,39.41 L13.46,39.1 L13.46,39.08 Z M26.77,28.9 L22.66,32.16 C21.086543,33.2758577 19.435711,34.2783873 17.72,35.16 C12.8533333,37.8266667 9.83,39.2166667 8.65,39.33 L8.47,39.33 C8.61666667,38.7833333 10.7833333,34.3466667 14.97,26.02 C17.9719136,25.5368719 20.8992479,24.6697625 23.68,23.44 L24.68,23.36 C26.2725629,23.0755635 27.9102508,23.4950159 29.17,24.51 L29.23,25.12 C28.49,27.25 27.67,28.5 26.79,28.87 L26.77,28.9 Z M18.77,24.38 L19.43,24.32 L19.43,24.47 L18.77,24.53 L18.77,24.38 Z M28,22.81 L28.48,22.81 C28.93,23.02 29.16,23.21 29.18,23.38 L29.18,23.53 C28.684929,23.52269 28.232946,23.2469038 28,22.81 Z M29.31,15.33 C28.2417905,16.3363472 27.0605818,17.2155423 25.79,17.95 C25.16,18.01 22.79,18.95 18.72,20.71 C18.5165175,20.6176551 18.2925369,20.5797507 18.07,20.6 L18.07,20.31 C18.0921344,19.5051132 18.3686991,18.7279312 18.86,18.09 C19.18,16.41 19.52,15.45 19.86,15.22 L23.26,7.57 C23.22,7.09666667 23.9466667,6.73333333 25.44,6.48 L25.92,6.48 L25.92,6.92 C27.38,6.7 28.3,6.57 28.65,6.54 C31.35,6.31 32.76,6.86 32.87,8.17 L33.18,8.17 L33.11,7.4 L33.45,7.4 C34.1205278,7.67619321 34.6033594,8.2759605 34.73,8.99 C34.6987217,9.58573856 34.4537496,10.1502396 34.04,10.58 C33.83,10.58 33.71,10.45 33.7,10.15 L33.36,10.15 L33.29,11.08 C31.9233333,13.1266667 30.9233333,14.18 30.29,14.24 C29.73,15.01 29.39,15.4 29.29,15.4 L29.31,15.33 Z M31.4,20.69 C31.2084729,20.5369209 30.9746506,20.4461839 30.73,20.43 L30.73,19.97 L31.04,19.97 L31.72,20.37 C31.7429152,20.4544593 31.7234743,20.5447866 31.6678418,20.6123403 C31.6122093,20.6798941 31.5272861,20.7162946 31.44,20.71 L31.4,20.69 Z M33.56,23.25 C33.86,23.37 34.04,23.5 34.07,23.62 L33.92,23.62 L33.83,23.62 L33.61,23.8 L33.55,23.18 L33.56,23.25 Z M33.76,24.54 L33.76,24.42 L34.15,24.33 L34.15,24.45 L33.76,24.54 Z M34.7,25.59 C35.1,25.52 35.3,25.5 36.04,25.33 L36.04,25.45 L34.62,25.78 C34.6232195,25.7167076 34.6232195,25.6532924 34.62,25.59 L34.7,25.59 Z M36.08,26.18 C35.6004193,26.1902304 35.1237494,26.257367 34.66,26.38 L34.66,26.26 L35.85,25.88 L36.42,25.75 L36.48,25.97 C36.22,26.03 36.41,26.03 36.11,26.18 L36.08,26.18 Z M37.34,25.88 C37.2723304,25.8981315 37.2002073,25.8881877 37.1399688,25.852421 C37.0797302,25.8166544 37.0364744,25.758092 37.02,25.69 L37.38,25.61 C37.4453,25.5843276 37.5189292,25.5913429 37.5782062,25.628885 C37.6374831,25.6664271 37.6752973,25.7299925 37.68,25.8 L37.34,25.88 Z M40.75,22.21 L40.75,22.09 L41.34,21.95 L41.4,22.17 L40.78,22.17 L40.75,22.21 Z M44.39,44.55 C44.4150566,44.4279393 44.4150566,44.3020607 44.39,44.18 L44.52,44.18 C44.5809823,44.1543827 44.65047,44.1589938 44.7075326,44.1924443 C44.7645953,44.2258949 44.8025632,44.284275 44.81,44.35 L44.81,44.47 L44.33,44.58 L44.39,44.55 Z M47,23.16 L46.74,23.16 C46.3960094,23.30326 46.0416627,23.4202613 45.68,23.51 L45.44,23.57 C45.3763463,23.5915458 45.3065751,23.5854174 45.2476522,23.5531048 C45.1887293,23.5207922 45.1460528,23.4652558 45.13,23.4 L46.81,23 L47.37,22.74 L47.56,22.95 C47.3494004,22.979366 47.1497732,23.0619704 46.98,23.19 L47,23.16 Z M48.31,22.74 L48.31,22.62 C48.4338793,22.5806134 48.5445684,22.5079737 48.63,22.41 L49.84,22.13 L49.84,22.25 C49.3172084,22.3659392 48.8053304,22.5265283 48.31,22.73 L48.31,22.74 Z M48.5,20.29 C48.3736917,20.3364109 48.2580496,20.4078369 48.16,20.5 C48.16,20.42 47.97,20.42 47.66,20.5 C47.6,20.27 48.5,19.94 50.35,19.5 L50.61,19.44 L50.67,19.66 C49.37,20.04 48.67,20.26 48.5,20.28 L48.5,20.29 Z M51.76,16.77 C51.63,18.25 51.11,19.09 50.19,19.3 L50.19,19.18 L49.37,19.5 L49.01,19.58 C48.8466027,19.6266857 48.6733973,19.6266857 48.51,19.58 L48.44,19.25 C49.5248188,17.5418528 50.7137327,15.9020867 52,14.34 L52.28,14.34 C52.3159495,15.1637859 52.1512257,15.9839732 51.8,16.73 L51.76,16.77 Z M57.53,11.83 L57.42,11.83 L57.42,11.6 L57.9,11.6 L57.9,11.72 C57.7742321,11.7548433 57.6532993,11.8052319 57.54,11.87 L57.53,11.83 Z M55.13,35.69 C54.8991824,35.5686826 54.6405686,35.5100634 54.38,35.52 L54.38,35.17 C54.38,35.05 54.4533333,34.9666667 54.6,34.92 C54.76,34.92 54.85,35.01 54.87,35.26 C55.0603051,34.9763638 55.2853907,34.7176833 55.54,34.49 L55.79,34.59 C55.7,35.3 55.48,35.67 55.15,35.7 L55.13,35.69 Z M80.6,9 C80.48,9 80.25,8.64 79.88,7.88 L79.88,7.65 C80.11,7.65 80.36,7.99 80.6,8.74 L80.6,9 Z M80.26,6.34 L80.15,6.58 L76.7,5.14 C79,5.21 80.19,5.62 80.26,6.34 Z M65.65,18.93 L65.17,18.93 L65.17,18.7 L65.65,18.7 L65.65,18.93 Z M65.25,11.39 L65.38,11.39 L65.38,11.74 C65.26,11.74 65.11,11.9066667 64.93,12.24 L64.93,12.01 C65.0986508,11.8430097 65.2075982,11.6251149 65.24,11.39 L65.25,11.39 Z M64.25,13.81 L64.25,14.27 L64.12,14.27 L64.12,13.81 L64.25,13.81 Z M63.7,14.68 L63.94,14.68 C63.94,15.0733333 63.8366667,15.2766667 63.63,15.29 L63.5,15.29 C63.6182148,15.1073447 63.6871178,14.8971906 63.7,14.68 Z M63.31,15.87 L63.42,15.87 L63.42,16 L63.21,16.37 L62.97,16.37 L62.97,16.25 C63.22,16.25 63.33,16.1 63.31,15.87 Z M62.9,17 L62.82,17.6 L62.7,17.6 L62.7,17.01 L62.94,17.01 L62.9,17 Z M58.9,28.3 C58.74,29.08 58.5733333,29.48 58.4,29.5 L58.4,29.4 C58.3832588,28.9726629 58.5730333,28.5633453 58.91,28.3 L58.9,28.3 Z M58.16,29.87 L58.16,29.97 C58.1802408,30.0368415 58.1659278,30.1093722 58.1218124,30.1635138 C58.077697,30.2176554 58.0095522,30.2463231 57.94,30.24 L57.94,30.12 C57.94,30 58.0133333,29.9166667 58.16,29.87 Z M58,33.11 L58.37,33.11 L58.37,33.23 C58.2425007,33.2544412 58.1205134,33.3018807 58.01,33.37 L57.77,33.37 C57.77,33.2366667 57.8433333,33.1533333 57.99,33.12 L58,33.11 Z M68.46,29.88 C67.1798561,30.4475673 65.9575158,31.1374361 64.81,31.94 C62.57,32.72 61.47,33.21 61.48,33.4 C60.1465679,33.8943191 58.8441984,34.4686975 57.58,35.12 C57.3556051,35.1103769 57.1365134,35.0487574 56.94,34.94 C56.8946873,34.5268355 57.1096708,34.1287179 57.48,33.94 C57.8205753,33.9078027 58.16386,33.9592954 58.48,34.09 C59.1025341,33.8234464 59.7486973,33.6158707 60.41,33.47 L60.41,33.24 L59.66,33.31 C60.3313214,32.8932925 61.0496649,32.557618 61.8,32.31 L62.17,32.31 L62.17,32.41 C61.54,32.47 61.17,32.65 61.11,32.99 C61.1081074,33.0555511 61.1369456,33.118223 61.1879617,33.1594283 C61.2389779,33.2006337 61.3063142,33.2156412 61.37,33.2 C61.84,32.89 62.06,32.72 62.06,32.66 C62.9533333,32.5 65.4333333,31.2 69.5,28.76 L69.5,28.99 C69.5,29.08 69.16,29.38 68.5,29.89 L68.46,29.88 Z M62.22,31.88 C62.8025961,31.8349802 63.3510171,31.5873062 63.77,31.18 C63.93,31.18 64.02,31.24 64.03,31.39 C63.44362,31.5404014 62.8837775,31.7798521 62.37,32.1 L62.24,32.1 L62.24,31.88 L62.22,31.88 Z M72.3,24.14 L69.2,26.64 C67.9967086,27.5192231 66.7299051,28.3080506 65.41,29 C61.7233333,31 59.4266667,32.0533333 58.52,32.16 L58.39,32.16 C58.5033333,31.74 60.1533333,28.3733333 63.34,22.06 C65.6192106,21.6762498 67.8403632,21.0041916 69.95,20.06 L70.7,20 C71.9089423,19.785423 73.1512423,20.1106133 74.1,20.89 L74.1,21.35 C73.57,23 73,23.9 72.28,24.18 L72.3,24.14 Z M66.21,20.71 L66.69,20.71 L66.69,20.83 L66.21,20.83 L66.21,20.71 Z M73.26,19.51 L73.63,19.51 C73.97,19.68 74.15,19.83 74.16,19.95 L74.16,20.05 C73.7850019,20.0642131 73.4336118,19.8672802 73.25,19.54 L73.26,19.51 Z M74.26,13.84 C73.4544325,14.6082015 72.5616877,15.2794382 71.6,15.84 C69.7441903,16.4117684 67.9381853,17.1341704 66.2,18 C66.0430975,17.943704 65.8763892,17.9198886 65.71,17.93 L65.71,17.7 C65.7141088,17.0886839 65.90998,16.4940747 66.27,16 C66.51,14.71 66.78,14 67.06,13.83 L69.67,8 C69.67,7.66 70.19,7.38 71.31,7.16 L71.68,7.16 L71.68,7.51 C72.78,7.33 73.47,7.22666667 73.75,7.2 C75.75,7.02 76.87,7.43 76.96,8.44 L77.2,8.44 L77.2,7.88 L77.44,7.88 C77.959792,8.06703127 78.3407576,8.51657074 78.44,9.06 C78.4244803,9.51148031 78.2510799,9.94321193 77.95,10.28 C77.79,10.28 77.7,10.19 77.68,9.94 L77.44,9.94 L77.37,10.64 C76.25,12.16 75.5,13 75,13 C74.58,13.57 74.32,13.86 74.2,13.87 L74.26,13.84 Z M75.35,17.72 L75.35,17.37 L75.59,17.37 L76.11,17.69 C76.118722,17.753343 76.0994543,17.8173467 76.0572133,17.8653477 C76.0149724,17.9133488 75.9539378,17.9405977 75.89,17.94 C75.7419305,17.827161 75.5653023,17.7578951 75.38,17.74 L75.35,17.72 Z M31.94,40.39 L31.7,40.45 L31.49,40.63 C31.4974368,40.695725 31.5354047,40.7541051 31.5924674,40.7875557 C31.64953,40.8210062 31.7190177,40.8256173 31.78,40.8 C31.94,40.8 32,40.67 31.97,40.52 L31.97,40.4 L31.94,40.39 Z M31,38.55 L31,38.67 C31.16,38.67 31.22,38.54 31.19,38.39 L31.19,38.27 C31.1249187,38.2763496 31.0660347,38.3113211 31.029318,38.36543 C30.9926012,38.419539 30.9818573,38.487177 31,38.55 Z M37.6,26.16 L37.78,26.05 L37.69,26.05 C37.6327141,26.0647705 37.5973702,26.1222044 37.61,26.18 L37.6,26.16 Z M37.6,22.95 L37.88,22.88 L37.82,22.64 L37.54,22.71 L37.6,22.95 Z M103.45,32.36 L102.82,32.29 L102.71,32.53 L102.71,32.65 L106.48,32.33 L106.48,32.1 L103.48,32.36 L103.45,32.36 Z M106.9,32.07 L106.9,32.3 L106.9,32.07 Z M122.7,30 L122.7,30.23 L123.11,30.3 L123.11,30.07 L122.7,30 Z M122.12,30 C120.887879,30.3430642 119.618496,30.5344791 118.34,30.57 L118.34,30.8 L118.6,30.8 L118.74,30.8 L119.05,30.68 C121.85,30.37 122.18,30.48 122.15,30.17 L122.15,30 L122.12,30 Z M105.12,25.88 L104.87,25.8 C104.728798,26.1195587 104.62802,26.4554867 104.57,26.8 L104.57,26.9 C104.77,26.9 104.94,26.56 105.11,25.9 L105.12,25.88 Z M101.71,24.04 L101.71,24 L101.58,24 L101.35,24.15 L101.48,24.37 C101.66,24.37 101.74,24.27 101.72,24.11 L101.71,24.04 Z M109.12,31.7 L109.12,31.47 L109,31.47 L109,31.7 L109.12,31.7 Z M124.49,28.23 L124.67,28.23 C124.77,28.23 124.82,28.14 124.81,27.99 L124.71,27.77 C124.199788,27.7671732 123.697285,27.8945198 123.25,28.14 L123.25,28.02 L122.48,28.09 C122.48,27.86 122.4,27.74 122.29,27.75 L121.89,27.75 C121.42,27.75 121.2,27.75 120.97,27.95 C120.97,27.87 120.97,27.83 120.89,27.83 L120.44,27.83 L120.18,27.98 C120.18,27.9 120.18,27.86 120.1,27.86 L119.94,28 L119.32,28 L119.17,28 L119.17,28.23 L119.49,28.31 L119.79,28.31 C119.89254,28.3701175 120.012051,28.3947227 120.13,28.38 L120.39,28.25 L120.39,28.35 C119.581178,28.5603735 118.759408,28.7173783 117.93,28.82 C117.859521,28.7607625 117.77189,28.7257101 117.68,28.72 C117.626933,28.7174131 117.577076,28.6938176 117.541431,28.6544199 C117.505785,28.6150221 117.48728,28.5630603 117.49,28.51 L118.01,28.44 C118.124872,28.4765896 118.241726,28.5066378 118.36,28.53 C118.78,28.32 118.8,28.24 119.02,28.22 L119.02,27.99 C118.142397,28.1512995 117.252288,28.2349563 116.36,28.24 L116.28,28.24 L116.28,28.01 C118.59,27.73 117.82,27.89 118.61,27.67 C118.61,27.75 118.61,27.79 118.69,27.79 C118.775387,27.7018541 118.888251,27.6454219 119.01,27.63 L119.17,27.63 C120.076317,27.6577081 120.981196,27.5395337 121.85,27.28 L121.85,27.38 L122.11,27.25 L122.35,27.25 C122.35,27.02 122.69,26.98 122.81,26.97 L122.81,26.72 C120,27.29 119.26,27.13 118.48,27.35 L118.48,27.25 C118.152434,27.325821 117.815454,27.3527793 117.48,27.33 C117.390604,27.3570575 117.310804,27.4091013 117.25,27.48 C117.25,27.4 117.25,27.36 117.16,27.36 L114.77,27.75 C114.77,27.68 114.77,27.65 114.68,27.66 C113.845549,27.9043431 112.987316,28.0585569 112.12,28.12 C112.008446,28.140287 111.902657,28.1846504 111.81,28.25 C111.81,28.18 111.81,28.15 111.68,28.16 L110.68,28.24 L110,28.41 C110,28.34 110,28.31 109.87,28.32 C109.543379,28.4146206 109.208564,28.4782354 108.87,28.51 C108.7,28.51 108.95,28.51 108.87,28.41 L108.66,28.53 C108.36,28.53 108.52,28.53 107.5,28.53 C105.7,28.75 105.9,28.78 105.7,28.79 L105.03,28.79 C105.036895,28.8189306 105.029053,28.8493996 105.009047,28.8714061 C104.989041,28.8934127 104.959455,28.9041149 104.93,28.9 C104.17,28.8 103.77,28.68 103.77,28.54 C103.87,27.8133333 104.046667,27.44 104.3,27.42 L104.43,27.42 L104.32,27.66 L104.45,27.66 C104.69,27.53 104.8,27.41 104.79,27.3 L104.79,27.05 L104.55,27.05 L104.55,26.82 C104.527611,26.6598614 104.551917,26.4966639 104.62,26.35 L105.17,25.46 L105.17,25.69 L105.43,25.69 L105.43,25.46 L105.28,25.25 C105.408822,25.1184473 105.571464,25.0250148 105.75,24.98 L105.75,24.86 L105.4,24.86 L105.4,24.51 C105.850422,23.7036265 106.186955,22.8387379 106.4,21.94 L106.65,22.04 C106.81,22.04 106.88,21.94 106.87,21.77 L106.63,21.77 L106.63,21.67 C106.612741,21.5014294 106.643965,21.331435 106.72,21.18 C107.066169,20.8709218 107.256759,20.4237686 107.24,19.96 C107.31,19.96 107.35,19.96 107.36,20.07 C107.69,19.88 107.94,19.39 108.12,18.57 C109.091823,16.5484526 109.917277,14.4597516 110.59,12.32 C112.64,6.8 112.59,6.22 112.84,4.91 L112.6,4.91 C112.618199,5.07538232 112.586875,5.24244418 112.51,5.39 C112.387393,5.33402446 112.254737,5.30341137 112.12,5.3 L112.12,5.2 C112.130016,4.57847594 112.344385,3.97753858 112.73,3.49 L112.84,3.49 L113.05,4.29 L113.29,4.29 C113.329988,3.95265183 113.393476,3.61850641 113.48,3.29 C113.48,3.17 113.38,3.09 113.19,3.08 L112.96,3.23 C112.96,3.06 112.96,2.62 112.96,1.93 L112.84,1.93 C112.678556,1.80123333 112.56571,1.62138444 112.52,1.42 L111.19,1.55 C111.165059,1.40542599 111.114245,1.26653595 111.04,1.14 C111.04,1.02 111.33,0.9 111.94,0.78 L112.21,0.88 L112.46,0.73 C112.46,0.81 112.52,0.85 112.61,0.84 L112.86,0.69 C112.86,0.77 112.92,0.81 113.01,0.8 L113.13,0.8 L113.13,0.53 C112.94,0.53 112.45,0.53 111.67,0.53 L111.42,0.7 L111.42,0.55 C105.166667,1.06333333 101.616667,1.36 100.77,1.44 C100.66,1.44 100.22,1.44 99.45,1.44 C99.45,1.54 99.37,1.6 99.18,1.62 L98.91,1.5 L98,1.73 C97.6407175,1.76214314 97.2792825,1.76214314 96.92,1.73 C96.773936,1.84635922 96.5962245,1.91605001 96.41,1.93 L99.08,1.76 C98.8877499,1.8904655 98.6622429,1.96332161 98.43,1.97 C98.24829,1.99469596 98.0633719,1.96329478 97.9,1.88 C97.2447363,2.0817414 96.5765336,2.23876904 95.9,2.35 L95.63,2.25 L91.27,2.92 C91.0855365,2.83569368 90.8812098,2.80452519 90.68,2.83 C90.2871441,2.88145229 89.8991746,2.96506639 89.52,3.08 L87.41,3.96 L87.57,4.22 C87.723215,4.19250229 87.8694027,4.13470719 88,4.05 L88.75,4.12 L88.66,4.82 C88.0128222,4.93781563 87.4742944,5.38532462 87.24,6 C86.24,6.46 85.69,6.78 85.69,7 L85.69,7.12 L85.85,7.12 L86.13,6.97 L86.46,7.36 L86.46,7.9 C86.46,8.06666667 84.7233333,11.7333333 81.25,18.9 C78.25,25.8 76.65,29.57 76.5,30.25 C75.5,30.54 74.87,30.96 74.69,31.52 C74.69,31.7 75.02,31.82 75.61,31.86 L75.61,32.13 L75.34,32.58 L75.34,33.12 C75.34,33.4 76.0933333,33.6133333 77.6,33.76 C77.6,33.67 77.6,33.61 77.74,33.6 C77.7298411,34.2756888 77.6357876,34.9474992 77.46,35.6 L77.62,35.6 C78.0719248,35.1187823 78.3772021,34.5186349 78.5,33.87 L78.63,33.87 C78.78,33.87 78.94,34.03 79.12,34.39 C78.9333333,34.4633333 78.2666667,35.9466667 77.12,38.84 L77.28,39.1 L77.44,39.1 C78.8066667,35.6333333 79.6666667,33.7166667 80.02,33.35 C81.82,33.19 84.93,32.8566667 89.35,32.35 L89.63,32.18 C89.6279103,32.2226821 89.6469304,32.2636654 89.680876,32.2896238 C89.7148215,32.3155821 89.7593565,32.3231998 89.8,32.31 L90.09,32.31 L90.37,32.14 C90.3679103,32.1826821 90.3869304,32.2236654 90.420876,32.2496238 C90.4548215,32.2755821 90.4993565,32.2831998 90.54,32.27 L94,31.87 C94.89,31.8 95.3,31.53 95.27,31.07 C95.27,30.95 95.78,30.81 96.84,30.66 C96.9969413,30.658239 97.1528682,30.6853567 97.3,30.74 C97.3,30.66 97.82,30.57 98.88,30.48 C98.88,29.92 99.08,29.62 99.4,29.59 L99.4,29.32 C99.0591745,29.3593788 98.723782,29.4365191 98.4,29.55 C97.9522199,29.5443916 97.5063343,29.4907512 97.07,29.39 C96.9387024,29.4733405 96.7927914,29.5310263 96.64,29.56 L94.31,29.63 L94.03,29.78 C94.03,29.6933333 93.9733333,29.6566667 93.86,29.67 L93.73,29.67 L93.43,29.82 C93.43,29.74 93.18,29.67 92.69,29.61 L92.39,29.79 L91.81,29.79 L91.81,29.7 C94.81,29.3733333 96.29,28.9666667 96.25,28.48 C96.3303571,28.4607515 96.4150792,28.4808455 96.4782329,28.5341314 C96.5413865,28.5874173 96.5754513,28.6675497 96.57,28.75 L97.45,28.53 L97.45,28.26 L90.27,28.46 C90.27,28.55 90.27,28.61 90.13,28.62 L89.25,28.55 C89.0480743,28.5618702 88.8537607,28.6312679 88.69,28.75 L88.36,28.63 C87.6838767,28.6719736 87.0137683,28.7825415 86.36,28.96 C85.694365,28.9075492 85.025635,28.9075492 84.36,28.96 L82.75,29.1 L81.9,29 C81.9,28.52 82.79,26.19 84.69,22 C84.9713937,21.0037473 85.5013055,20.0953272 86.23,19.36 C86.3895774,19.3622289 86.5466775,19.3997963 86.69,19.47 L87.84,19.08 L88.43,19.17 C89.6125293,19.040483 90.7726499,18.7546562 91.88,18.32 C92.1320274,18.28408 92.3889727,18.3080616 92.63,18.39 L93.51,18.18 L96.09,18 C97.3196234,17.8832675 98.5332097,17.6351863 99.71,17.26 L99.71,16.99 C99.23,16.99 98.97,16.99 98.96,16.76 C98.96,16.4 98.58,16.25 97.9,16.3 L97.9,16.03 L98.62,15.82 L100.5,15.66 L100.5,15.39 C100.43,15.39 100.04,15.39 99.34,15.39 L99.34,15.1 L100.07,15.03 C100.27,15.03 100.35,14.92 100.33,14.73 C99.33,14.73 98.86,14.73 98.85,14.58 C92.03,14.9133333 88.61,14.9766667 88.59,14.77 C88.4352882,14.8035888 88.2890024,14.8682267 88.16,14.96 L87.98,14.68 C89.7866667,10.84 90.8466667,8.90666667 91.16,8.88 C91.1417372,9.13348905 91.0665381,9.37959506 90.94,9.6 L90.94,9.72 L91.23,9.72 C91.95,8.01 92.55,7.12 93.06,7.08 C95.2,6.89 92.76,6.75 97.35,6.08 C97.4757938,6.14919971 97.6164615,6.18693981 97.76,6.19 C99.56,5.82333333 102.066667,5.44333333 105.28,5.05 L105.28,4.78 L103.57,4.94 L103.57,4.67 C103.756224,4.65605001 103.933936,4.58635922 104.08,4.47 L104.08,4.62 C104.222337,4.58596772 104.355469,4.52110836 104.47,4.43 C104.69967,4.39176969 104.935474,4.41951131 105.15,4.51 C105.622174,4.37787916 106.103493,4.28094682 106.59,4.22 L107.66,4.12 C107.92,3.95 108.04,3.8 108.03,3.66 L108.03,3.54 C107.715402,3.5639707 107.398997,3.54377465 107.09,3.48 C107.081586,3.4083059 107.102231,3.33622783 107.147325,3.27985989 C107.192419,3.22349195 107.258207,3.1875286 107.33,3.18 L109.33,2.99 L110.24,2.76 C110.24,2.86 110.3,2.9 110.37,2.9 C110.512337,2.86596772 110.645469,2.80110836 110.76,2.71 L110.91,2.71 C110.748514,3.06237432 110.614775,3.42681414 110.51,3.8 L110.25,3.8 C110.236354,3.63082899 110.185107,3.46683937 110.1,3.32 L109.97,3.32 C107.55,10.07 106.47,13.21 104.23,18.39 C103.82,19.71 103.48,20.45 103.18,20.61 C103.178107,20.6755511 103.206946,20.738223 103.257962,20.7794283 C103.308978,20.8206337 103.376314,20.8356412 103.44,20.82 C103.491587,21.4955543 103.330757,22.170341 102.98,22.75 C101.98,25.75 101.26,27.36 100.9,27.66 L101,29 C101.008722,29.063343 100.989454,29.1273467 100.947213,29.1753477 C100.904972,29.2233488 100.843938,29.2505977 100.78,29.25 L100.54,29.25 C100.54,28.86 100.36,28.67 100.11,28.7 L99.98,28.7 C99.6445463,29.2285366 99.4010989,29.8101055 99.26,30.42 L99.5,30.42 C99.7836846,30.2794294 99.9594657,29.9864608 99.95,29.67 L100.43,29.67 L100.71,29.77 C100.521062,30.0143527 100.412733,30.3113839 100.4,30.62 L100.53,30.84 L100.21,31.59 L100.21,31.71 C100.533358,31.6969121 100.852365,31.7880572 101.12,31.97 C101.387724,31.9328992 101.642021,31.8298059 101.86,31.67 C102.14,31.67 103.18,31.67 104.98,31.67 L105.88,31.36 C106.624049,31.3763874 107.368443,31.3530208 108.11,31.29 L108.5,31.29 L108.71,31.15 L108.71,31.27 C109.323348,31.2002506 109.943724,31.2238519 110.55,31.34 L110.55,31.46 L110,31.46 L110,31.69 C110.160557,31.6794637 110.314068,31.6201525 110.44,31.52 C110.58,31.52 110.66,31.59 110.67,31.75 C110.414199,31.7770619 110.162469,31.8341206 109.92,31.92 L109.68,31.84 C109.3,31.94 109.38,31.97 109.12,31.99 L108.74,31.92 C108.746183,31.9470888 108.739508,31.9755149 108.721913,31.9970197 C108.704318,32.0185245 108.677777,32.0306967 108.65,32.03 C108.646273,32.0903901 108.670084,32.1492213 108.714766,32.1900179 C108.759448,32.2308146 108.820197,32.2491907 108.88,32.24 L109.27,32.24 L111.27,32.06 L112.04,31.89 C112.04,31.96 112.04,31.99 112.14,31.98 L112.51,31.84 L113.21,31.78 C113.75,31.78 113.74,31.7 114.92,31.51 C114.92,31.44 114.92,31.41 114.99,31.4 L114.99,31.5 C115.804243,31.3910995 116.609638,31.2240051 117.4,31 L117.4,31.06 C117.88,30.95 117.61,30.98 117.74,30.88 C117.74,30.96 117.74,31 117.82,31 L118.16,31 L118.16,30.75 L117.48,30.75 L117.41,30.75 L117.32,30.75 C117.069514,30.7969182 116.814745,30.8170316 116.56,30.81 L114.85,30.9 L114.85,30.78 L115.85,30.65 L116.19,30.65 L116.39,30.51 L116.39,30.63 C117.73,30.52 118.21,30.85 124.39,29.53 C124.73,29.53 124.7,29.22 124.91,28.64 C124.795494,28.649878 124.680635,28.6255139 124.58,28.57 C123.999269,28.7110053 123.406749,28.7980421 122.81,28.83 C122.73,28.83 122.66,28.76 122.63,28.62 L122.63,28.52 L123.63,28.52 C123.984446,28.4823315 124.32605,28.3661858 124.63,28.18 C124.63,28.26 124.43,28.31 124.55,28.3 L124.49,28.23 Z M78.61,29 L78.17,29 C78.3165,28.3060452 78.5517687,27.6338489 78.87,27 L79.16,27 C79.0686848,27.6886196 78.8836374,28.361519 78.61,29 Z M79.14,26.88 L79.14,26.76 C79.14,26.61 79.22,26.51 79.43,26.46 L79.43,26.58 C79.43,26.76 79.35,26.86 79.14,26.88 Z M85,31.4 L85,31.52 L84.27,31.59 L84.27,31.47 L85,31.4 Z M84.12,31.33 C84.12,31.48 83.91,31.65 83.42,31.81 L82.53,31.74 L82.24,31.74 L82.24,31.47 L84.15,31.29 L84.12,31.33 Z M90,4.22 L89.56,4.22 L89.56,4.07 C89.56,3.92 89.63,3.82 89.82,3.77 L89.98,3.77 L90.28,3.89 C90.2921466,3.96735375 90.2687849,4.04606233 90.2164038,4.10426345 C90.1640228,4.16246458 90.0882014,4.19395946 90.01,4.19 L90,4.22 Z M96.66,2.92 L96.8,2.92 L96.8,3.19 L96.4,3.19 C96.3915856,3.1183059 96.4122305,3.04622783 96.4573249,2.98985989 C96.5024192,2.93349195 96.5682075,2.8975286 96.64,2.89 L96.66,2.92 Z M95,3.5 L94.34,3.43 L94.34,3.3 C94.9032326,3.26585263 95.4604429,3.16515197 96,3 C96,3.1 96.1,3.14 96.27,3.12 L96.27,3.39 L96.01,3.39 C95.82829,3.41469596 95.6433719,3.38329478 95.48,3.3 C95.3278327,3.40357913 95.1528464,3.46877011 94.97,3.49 L95,3.5 Z M95.83,5.91 L95.83,5.79 L96.9,5.69 L96.9,5.81 L95.83,5.91 Z M96.94,5 L96.94,4.85 L97.46,4.85 L97.46,5 L96.94,5 Z M97.06,3.17 L96.92,3.17 L97.04,2.88 L98.23,2.77 L98.23,2.92 C97.8306552,2.96691056 97.4359418,3.04719125 97.05,3.16 L97.06,3.17 Z M97.67,5.74 L97.67,5.47 L98.19,5.47 C98.37,5.47 98.4633333,5.55333333 98.47,5.72 L97.69,5.79 L97.67,5.74 Z M100.83,1.44 L100.16,1.63 L100,1.63 C99.5974563,1.66569261 99.1925437,1.66569261 98.79,1.63 C99.66,1.57 100.49,1.51 100.79,1.46 L100.83,1.44 Z M100.11,4.44 L100.11,4.56 L99.19,4.64 L99.19,4.52 L100.11,4.44 Z M101.62,5.16 C101.62,5.05 101.43,4.97 101.07,4.94 L100.15,5.2 L99.44,5.2 C99.28,5.09 99.2,5.01 99.19,4.96 L100.01,4.96 L101.85,4.66 L102.79,4.66 L102.79,4.81 C102.388801,4.84473958 101.992894,4.92526311 101.61,5.05 L101.62,5.16 Z M111.11,2.71 L111.32,2.71 C111.639359,2.39219737 112.015989,2.13771788 112.43,1.96 C112.22494,3.17606482 111.680735,4.30953452 110.86,5.23 L110.34,4.91 C110.647562,4.18864522 110.904843,3.44687378 111.11,2.69 L111.11,2.71 Z M109.51,5.46 L109.64,5.46 C109.46,5.8 109.3,5.97 109.17,5.98 L109.17,5.63 C109.301586,5.60792307 109.425437,5.55287825 109.53,5.47 L109.51,5.46 Z M108.51,7.93 C108.590054,7.30210865 108.838885,6.70767954 109.23,6.21 L109.23,6.33 C109.1,7.26 108.89,7.76 108.62,7.79 L108.62,8.38 C108.436854,8.58996325 108.324841,8.85249343 108.3,9.13 L108.17,9.13 L108.1,8.32 C108.25,8.32 108.37,8.17 108.45,7.93 L108.51,7.93 Z M108.11,9.27 C108.071446,9.61513737 107.980396,9.95236019 107.84,10.27 L107.71,10.27 L107.71,9.92 C107.89,9.51 108.04,9.3 108.14,9.3 L108.11,9.27 Z M100.59,31.09 L100.59,30.99 L100.83,30.99 L100.83,31.34 C100.7,31.34 100.61,31.27 100.57,31.11 L100.59,31.09 Z M111.33,31.37 C111.33,31.29 111.33,31.25 111.2,31.26 L110.59,31.32 L110.59,31.2 L110.65,31.2 L112,31 L112,31.12 C111.737331,31.100126 111.475038,31.1630763 111.25,31.3 L111.33,31.37 Z M110.68,29.39 L109.88,29.46 L109.88,29.3 L110.61,29.23 L111.24,29.07 C111.24,29.14 111.24,29.17 111.37,29.16 C112.12,29.03 112.05,28.99 112.37,28.96 C112.49,28.96 112.57,29.03 112.58,29.17 L110.65,29.34 L110.68,29.39 Z M113.48,29.15 C113.220183,29.0972496 112.954803,29.0770942 112.69,29.09 L112.69,29 L113.41,28.93 L113.41,29 C113.34,29 113.61,29 113.48,29.12 L113.48,29.15 Z M113.54,29.02 L113.54,28.92 L113.93,28.92 L113.93,29.02 L113.54,29.02 Z M114.41,28.95 L114.41,28.85 C114.513866,28.8228062 114.609817,28.7714039 114.69,28.7 C114.767533,28.6886605 114.846271,28.7103286 114.907086,28.7597407 C114.967901,28.8091528 115.005228,28.8817872 115.01,28.96 L114.41,28.95 Z M115.52,28.81 L115.52,28.69 L116,28.69 L116,28.81 L115.52,28.81 Z M116.18,28.75 C116.18,28.61 116.18,28.53 116.35,28.51 L116.51,28.72 C116.504062,28.6960853 116.508189,28.670782 116.521418,28.6499935 C116.534647,28.629205 116.555821,28.6147496 116.58,28.61 L116.7,28.83 L116.18,28.76 L116.18,28.75 Z M125.52,27.55 C125.59,27.55 125.63,27.46 125.45,27.43 C125.27,27.4 125.54,27.55 125.36,27.56 L125.36,27.64 L125.46,27.57 L125.36,27.65 L125.16,27.9 L125.55,27.76 L125.55,27.53 L125.52,27.55 Z M126.2,28.08 L126.13,28.08 L126.13,28.31 L126.68,28.31 C126.68,28.16 126.31,28.11 126.19,28.11 L126.2,28.08 Z" id="Shape" fill="#F9DC3E"></path>
        </g>
    </g>
</svg>