<?xml version="1.0" encoding="UTF-8"?>
<svg width="126px" height="81px" viewBox="0 0 126 81" version="1.1" xmlns="http://www.w3.org/2000/svg" xmlns:xlink="http://www.w3.org/1999/xlink">
    <!-- Generator: Sketch 52.2 (67145) - http://www.bohemiancoding.com/sketch -->
    <title>docker-plain</title>
    <desc>Created with Sketch.</desc>
    <g id="Page-4" stroke="none" stroke-width="1" fill="none" fill-rule="evenodd">
        <g id="Done" transform="translate(-875.000000, -522.000000)" fill="#019BC6" fill-rule="nonzero">
            <g id="docker-plain" transform="translate(875.000000, 522.000000)">
                <path d="M123.8,28.1 C119.5,25.6 113.8,25.3 109,26.7 C108.4,21.5 105,17 101,13.8 L99.4,12.5 L98,14.1 C95.3,17.2 94.5,22.4 94.9,26.4 C95.2,29.3 96.1,32.3 97.9,34.7 C96.5,35.5 95,36.6 93.6,37.1 C90.8,38.1 87.7,39.1 84.7,39.1 L78,39.1 L78,25 L65,25 L65,0 L50,0 L50,12 L25,12 L25,25 L12,25 L12,39 L0.8,39 L0.6,40.5 C0.1,46.9 0.9,53.1 3.6,59 L4.7,61.2 L4.8,61.4 C12.7,74.8 26.5,80.4 41.6,80.4 C70.8,80.4 94.9,67.3 105.9,39.8 C113.3,40.2 120.9,38 124.5,30.9 L125.4,29.1 L123.8,28.1 Z M27,15 L37,15 L37,26 L27,26 L27,15 Z M40.1,59.2 C40.1,60.9 38.7,62.3 37,62.3 C35.3,62.3 33.9,60.9 33.9,59.2 C33.9,57.5 35.3,56.1 37,56.1 C38.7,56.2 40.1,57.5 40.1,59.2 Z M27,28 L37,28 L37,39 L27,39 L27,28 Z M14,28 L25,28 L25,39 L14,39 L14,28 Z M41.7,78.2 C25.9,78.1 17.4,72.8 10.4,65.8 C12.5,65.9 14.5,66 16.3,66 C17.9,66 19.5,66 21,65.9 C24.9,65.7 28.3,65.2 31.1,64.4 C33.4,69.7 37.6,74.6 45.1,78.2 L41.7,78.2 Z M50,39 L39,39 L39,28 L50,28 L50,39 Z M50,26 L39,26 L39,15 L50,15 L50,26 Z M63,39 L52,39 L52,28 L63,28 L63,39 Z M63,26 L52,26 L52,15 L63,15 L63,26 Z M63,13 L52,13 L52,2 L63,2 L63,13 Z M76,39 L65,39 L65,28 L76,28 L76,39 Z M37.8,57.2 C37.6,57.1 37.3,57 37,57 C35.8,57 34.8,58 34.8,59.2 C34.8,60.4 35.8,61.4 37,61.4 C38.2,61.4 39.2,60.4 39.2,59.2 C39.2,58.9 39.1,58.6 39,58.4 C38.8,58.7 38.6,58.9 38.2,58.9 C37.7,58.9 37.3,58.5 37.3,58 C37.4,57.6 37.6,57.3 37.8,57.2 Z" id="Shape"></path>
            </g>
        </g>
    </g>
</svg>