<?xml version="1.0" encoding="UTF-8"?>
<svg width="124px" height="28px" viewBox="0 0 124 28" version="1.1" xmlns="http://www.w3.org/2000/svg" xmlns:xlink="http://www.w3.org/1999/xlink">
    <!-- Generator: Sketch 52.2 (67145) - http://www.bohemiancoding.com/sketch -->
    <title>express-original-wordmark</title>
    <desc>Created with Sketch.</desc>
    <g id="Page-4" stroke="none" stroke-width="1" fill="none" fill-rule="evenodd">
        <g id="Done" transform="translate(-240.000000, -550.000000)" fill="#000000">
            <g id="express-original-wordmark" transform="translate(240.000000, 550.000000)">
                <path d="M38.53,27.82 L38.53,0.74 L40,0.74 L40,5 C40.1736206,4.8112875 40.3340021,4.61081062 40.48,4.4 C41.7062726,1.85448417 44.2946862,0.248420301 47.12,0.28 C50.47,0.18 53.19,1.42 54.79,4.4 C56.855688,8.15624364 56.9749343,12.6801485 55.11,16.54 C53.62,19.88 49.94,21.54 46,20.93 C43.508741,20.7177938 41.2949647,19.2570026 40.12,17.05 L40.12,27.82 L38.53,27.82 Z M40,10.32 C40.13,11.64 40.18,12.58 40.33,13.5 C40.91,17.12 43.05,19.27 46.41,19.66 C49.6633233,20.1947713 52.8412863,18.3566609 54,15.27 C55.3061538,12.1554716 55.2114594,8.62992312 53.74,5.59 C52.5077652,2.83373061 49.5993328,1.22654638 46.61,1.65 C43.809708,1.85288794 41.445456,3.80771083 40.72,6.52 C40.406802,7.77169608 40.1663991,9.04048939 40,10.32 Z" id="Shape" fill-rule="nonzero"></path>
                <path d="M86.41,14 C85.9493013,17.9435565 82.6398689,20.9365831 78.67,21 C72.51,21.31 69.62,17.22 69.16,12.5 C68.8407237,9.93678883 69.2569088,7.33563237 70.36,5 C71.9363472,1.71246297 75.4594269,-0.176490223 79.07,0.33 C82.5005437,0.620756495 85.3603207,3.07372017 86.17,6.42 C86.4829838,7.9060961 86.7133373,9.40840132 86.86,10.92 L70.67,10.92 C70.37,15.2 72.67,18.64 75.93,19.47 C79.99,20.47 83.46,18.71 84.72,14.85 C85,13.86 85.51,13.72 86.41,14 Z M70.67,9.55 L85.14,9.55 C85.05,4.99 82.21,1.69 78.36,1.64 C74,1.57 70.86,4.75 70.67,9.55 Z" id="Shape" fill-rule="nonzero"></path>
                <path d="M89.39,14.1 L90.81,14.1 C90.9169406,16.2302418 92.2062704,18.1217736 94.15,19 C96.5752323,20.0913917 99.3656953,20.0177647 101.73,18.8 C103.032742,18.2127035 103.831119,16.8754222 103.73,15.45 C103.805157,14.0708982 102.955991,12.8093969 101.65,12.36 C100.09,11.78 98.43,11.46 96.84,10.95 C95.1856414,10.4788816 93.567986,9.88730107 92,9.18 C89.44,7.93 89.28,3.06 92.18,1.52 C95.1971835,-0.182636767 98.8719187,-0.239113231 101.94,1.37 C103.81297,2.40512392 104.84864,4.49239799 104.54,6.61 L103.32,6.61 C103.32,6.55 103.21,6.5 103.21,6.44 C103.06,2.55 99.8,1.35 96.3,1.69 C95.2551783,1.81888055 94.2403512,2.12671144 93.3,2.6 C92.1421874,3.12948436 91.4446733,4.33209483 91.56,5.6 C91.5635644,6.86825492 92.3642713,7.9972517 93.56,8.42 C95.1,8.98 96.71,9.34 98.29,9.78 C99.56,10.13 100.88,10.36 102.11,10.78 C103.88731,11.3626095 105.12058,12.9817738 105.21,14.85 C105.514389,16.9006628 104.470632,18.9156383 102.62,19.85 C99.28,21.74 93.78,21.24 91.33,18.85 C90.075851,17.588677 89.3774482,15.8786702 89.39,14.1 Z" id="Path"></path>
                <path d="M123.21,6.61 L121.88,6.61 C121.88,6.43 121.81,6.27 121.79,6.12 C121.745537,4.0653847 120.269245,2.32219207 118.25,1.94 C116.401311,1.40958299 114.429206,1.50449716 112.64,2.21 C111.187559,2.62646276 110.182368,3.94908185 110.17,5.46 C110.118745,6.94940404 111.121477,8.26966783 112.57,8.62 C114.57,9.24 116.62,9.62 118.65,10.18 C119.30783,10.3378904 119.955649,10.5349075 120.59,10.77 C122.528643,11.4636028 123.84388,13.2746978 123.903567,15.3328181 C123.963255,17.3909385 122.755188,19.275212 120.86,20.08 C118.006465,21.3757582 114.738877,21.4084341 111.86,20.17 C109.46209,19.135782 107.961807,16.7177735 108.1,14.11 L108.66,14.11 L109.4,14.11 C109.888241,16.465585 111.507156,18.4286453 113.726691,19.356451 C115.946226,20.2842567 118.48059,20.0573414 120.5,18.75 C121.737351,18.1071611 122.48719,16.8027545 122.42,15.41 C122.481906,14.0300837 121.620457,12.7766956 120.31,12.34 C118.75,11.76 117.09,11.45 115.5,10.94 C113.836179,10.4761565 112.208506,9.89126345 110.63,9.19 C108.13,7.96 107.93,3.13 110.78,1.59 C113.83798,-0.185913992 117.603392,-0.227667551 120.7,1.48 C122.478882,2.54192753 123.463246,4.55379503 123.21,6.61 Z" id="Path"></path>
                <path d="M36.1,20.51 C35.0164325,20.9203024 33.7971306,20.4566242 33.26,19.43 C31.63,16.99 29.83,14.66 28.1,12.28 L27.35,11.28 C25.29,14.04 23.23,16.69 21.35,19.44 C20.8433421,20.4206207 19.6884768,20.8740122 18.65,20.5 L26.38,10.13 L19.19,0.76 C20.2569344,0.374753062 21.4476916,0.792562614 22.04,1.76 C23.71,4.2 25.56,6.53 27.4,9 C29.25,6.55 31.08,4.21 32.79,1.79 C33.2998406,0.824543501 34.4523419,0.394505703 35.47,0.79 L32.68,4.49 C31.43,6.14 30.2,7.8 28.9,9.41 C28.6881396,9.59969733 28.5670645,9.87062369 28.5670645,10.155 C28.5670645,10.4393763 28.6881396,10.7103027 28.9,10.9 C31.29,14.07 33.66,17.25 36.1,20.51 Z" id="Path"></path>
                <path d="M68.92,0.66 L68.92,2.06 C66.8746935,1.92584916 64.8681755,2.6637269 63.3970693,4.09100472 C61.9259632,5.51828254 61.1277531,7.50157242 61.2,9.55 C61.2,12.8433333 61.2,16.1366667 61.2,19.43 C61.2,19.78 61.2,20.13 61.2,20.55 L59.77,20.55 L59.77,0.74 L61.17,0.74 L61.17,4.8 C62.9,1.84 65.57,0.74 68.92,0.66 Z" id="Path"></path>
                <path d="M0.13,10 C0.34,9 0.47,7.91 0.76,6.89 C2.49,0.74 9.54,-1.82 14.39,1.99 C17.23,4.22 17.94,7.38 17.8,10.94 L1.8,10.94 C1.54,17.3 6.13,21.14 12,19.18 C13.9344011,18.4880618 15.3895557,16.8674632 15.87,14.87 C16.18,13.87 16.68,13.7 17.63,13.99 C17.3129557,16.4565196 15.8831524,18.6417602 13.75,19.92 C10.1814962,21.871413 5.76274851,21.306459 2.8,18.52 C1.37115703,16.9134483 0.507204865,14.8835119 0.34,12.74 C0.34,12.4 0.21,12.06 0.14,11.74 C0.133333333,11.1466667 0.13,10.5666667 0.13,10 Z M1.82,9.57 L16.29,9.57 C16.2,4.96 13.29,1.69 9.41,1.66 C5.09,1.6 2,4.8 1.81,9.55 L1.82,9.57 Z" id="Shape" fill-rule="nonzero"></path>
            </g>
        </g>
    </g>
</svg>