<?xml version="1.0" encoding="UTF-8"?>
<svg width="92px" height="126px" viewBox="0 0 92 126" version="1.1" xmlns="http://www.w3.org/2000/svg" xmlns:xlink="http://www.w3.org/1999/xlink">
    <!-- Generator: Sketch 52.2 (67145) - http://www.bohemiancoding.com/sketch -->
    <title>java-original</title>
    <desc>Created with Sketch.</desc>
    <g id="Page-4" stroke="none" stroke-width="1" fill="none" fill-rule="evenodd">
        <g id="PLACEHOLDER" transform="translate(-49.000000, -272.000000)">
            <g id="java-original" transform="translate(48.000000, 272.000000)">
                <path d="M30.617,97.12 C30.617,97.12 25.85,99.894 34.014,100.83 C43.906,101.96 48.961,101.798 59.859,99.738 C59.859,99.738 62.73,101.533 66.732,103.089 C42.293,113.559 11.424,102.482 30.617,97.12 Z M27.629,83.455 C27.629,83.455 22.281,87.414 30.452,88.26 C41.019,89.351 49.362,89.44 63.806,86.66 C63.806,86.66 65.799,88.685 68.938,89.791 C39.396,98.431 6.492,90.471 27.629,83.455 Z" id="Shape" fill="#0074BD" fill-rule="nonzero"></path>
                <path d="M52.802,60.271 C58.827,67.206 51.222,73.441 51.222,73.441 C51.222,73.441 66.511,65.55 59.491,55.664 C52.932,46.449 47.904,41.872 75.126,26.084 C75.126,26.085 32.395,36.754 52.802,60.271 Z" id="Path" fill="#EA2D2E"></path>
                <path d="M85.123,107.229 C85.123,107.229 88.652,110.139 81.235,112.388 C67.133,116.66 22.529,117.948 10.141,112.559 C5.69,110.621 14.04,107.934 16.667,107.367 C19.406,106.774 20.97,106.882 20.97,106.882 C16.017,103.395 -11.043,113.732 7.227,116.697 C57.048,124.773 98.044,113.06 85.123,107.229 Z M32.912,69.294 C32.912,69.294 10.226,74.683 24.879,76.642 C31.067,77.47 43.397,77.28 54.89,76.316 C64.28,75.527 73.703,73.842 73.703,73.842 C73.703,73.842 70.395,75.261 67.999,76.895 C44.957,82.956 0.455,80.133 13.268,73.937 C24.1,68.698 32.912,69.294 32.912,69.294 Z M73.609,92.041 C97.03,79.874 86.2,68.181 78.641,69.756 C76.793,70.141 75.964,70.476 75.964,70.476 C75.964,70.476 76.652,69.397 77.964,68.933 C92.917,63.678 104.415,84.436 73.141,92.658 C73.141,92.656 73.5,92.331 73.609,92.041 Z" id="Shape" fill="#0074BD" fill-rule="nonzero"></path>
                <path d="M59.491,0.587 C59.491,0.587 72.459,13.563 47.188,33.51 C26.922,49.516 42.567,58.64 47.181,69.069 C35.35,58.396 26.672,48.999 32.493,40.254 C41.041,27.42 64.722,21.195 59.491,0.587 Z" id="Path" fill="#EA2D2E"></path>
                <path d="M35.214,125.021 C57.69,126.458 92.214,124.221 93.031,113.585 C93.031,113.585 91.46,117.617 74.454,120.816 C55.268,124.428 31.6,124.007 17.567,121.69 C17.567,121.691 20.442,124.071 35.214,125.021 Z" id="Path" fill="#0074BD"></path>
            </g>
        </g>
    </g>
</svg>