<?xml version="1.0" encoding="UTF-8"?>
<svg width="126px" height="126px" viewBox="0 0 126 126" version="1.1" xmlns="http://www.w3.org/2000/svg" xmlns:xlink="http://www.w3.org/1999/xlink">
    <!-- Generator: Sketch 52.2 (67145) - http://www.bohemiancoding.com/sketch -->
    <title>javascript-original</title>
    <desc>Created with Sketch.</desc>
    <g id="Page-4" stroke="none" stroke-width="1" fill="none" fill-rule="evenodd">
        <g id="PLACEHOLDER" transform="translate(0.000000, -565.000000)">
            <g id="javascript-original" transform="translate(0.000000, 565.000000)">
                <polygon id="Path" fill="#F0DB4F" points="0.408 0.408 125.592 0.408 125.592 125.593 0.408 125.593"></polygon>
                <path d="M115.347,95.736 C114.43,90.025 110.706,85.228 99.675,80.755 C95.843,78.994 91.571,77.733 90.298,74.829 C89.846,73.139 89.786,72.187 90.072,71.164 C90.893,67.844 94.856,66.809 97.997,67.761 C100.02,68.439 101.935,69.998 103.09,72.485 C108.492,68.987 108.481,69.01 112.253,66.606 C110.872,64.465 110.135,63.477 109.231,62.561 C105.982,58.932 101.555,57.063 94.475,57.206 L90.787,57.683 C87.253,58.576 83.885,60.431 81.91,62.918 C75.984,69.642 77.674,81.41 84.885,86.253 C91.989,91.585 102.425,92.798 103.758,97.784 C105.055,103.888 99.272,105.864 93.524,105.162 C89.288,104.281 86.932,102.128 84.385,98.213 C79.697,100.926 79.697,100.926 74.877,103.698 C76.02,106.197 77.221,107.328 79.137,109.493 C88.205,118.691 110.897,118.239 114.967,104.317 C115.132,103.839 116.228,100.651 115.347,95.736 Z M68.462,57.943 L56.753,57.943 L56.705,88.215 C56.705,94.653 57.038,100.555 55.991,102.364 C54.278,105.922 49.839,105.481 47.816,104.791 C45.757,103.779 44.71,102.34 43.497,100.306 C43.164,99.722 42.914,99.27 42.83,99.235 L33.31,105.065 C34.893,108.314 37.225,111.134 40.212,112.966 C44.674,115.644 50.671,116.465 56.943,115.025 C61.025,113.836 64.547,111.373 66.391,107.624 C69.057,102.709 68.485,96.76 68.461,90.18 C68.521,79.445 68.462,68.712 68.462,57.943 Z" id="Shape" fill="#323330" fill-rule="nonzero"></path>
            </g>
        </g>
    </g>
</svg>