<?xml version="1.0" encoding="UTF-8"?>
<svg width="120px" height="122px" viewBox="0 0 120 122" version="1.1" xmlns="http://www.w3.org/2000/svg" xmlns:xlink="http://www.w3.org/1999/xlink">
    <!-- Generator: Sketch 52.2 (67145) - http://www.bohemiancoding.com/sketch -->
    <title>mongodb-original-wordmark</title>
    <desc>Created with Sketch.</desc>
    <g id="Page-4" stroke="none" stroke-width="1" fill="none" fill-rule="evenodd">
        <g id="Done" transform="translate(-392.000000, -507.000000)">
            <g id="mongodb-original-wordmark" transform="translate(392.000000, 507.000000)">
                <path d="M83.259,97.139 C83.428,96.814 83.59,96.527 83.728,96.23 C83.815,96.04 83.949,96.002 84.138,96.007 C85.271,96.039 86.404,96.074 87.538,96.085 C88.501,96.095 89.466,96.077 90.43,96.066 C91.516,96.053 92.602,95.996 93.687,96.027 C95.132,96.069 96.54,96.352 97.847,96.995 C99.408,97.764 100.589,98.935 101.394,100.478 C101.908,101.463 102.206,102.508 102.325,103.618 C102.497,105.226 102.384,106.797 101.874,108.335 C101.242,110.241 100.042,111.7 98.375,112.793 C97.092,113.634 95.685,114.131 94.177,114.415 C92.581,114.716 90.98,114.619 89.379,114.624 C87.623,114.631 85.868,114.593 84.112,114.573 C83.805,114.57 83.761,114.512 83.842,114.219 L83.917,113.949 C84.088,113.411 84.18,113.387 84.726,113.297 C85.104,113.236 85.496,113.094 85.813,112.884 C85.997,112.762 86.073,112.444 86.145,112.199 C86.207,111.985 86.21,111.75 86.212,111.524 C86.237,108.099 86.263,104.675 86.277,101.252 C86.28,100.387 86.26,99.52 86.212,98.656 C86.178,98.051 85.855,97.637 85.135,97.494 C84.575,97.383 84.011,97.297 83.448,97.198 L83.259,97.139 Z M99.335,105.432 C99.259,104.75 99.222,104.062 99.1,103.39 C98.808,101.777 98.102,100.372 96.862,99.271 C94.857,97.492 92.443,97.218 89.913,97.43 C89.337,97.478 89.213,97.675 89.204,98.267 C89.19,99.107 89.176,99.947 89.175,100.787 C89.171,103.451 89.171,106.115 89.175,108.779 C89.176,109.537 89.184,110.295 89.206,111.051 C89.23,111.825 89.511,112.48 90.269,112.78 C91.464,113.253 92.721,113.309 93.975,113.116 C95.978,112.809 97.379,111.642 98.319,109.893 C99.063,108.505 99.273,106.99 99.335,105.432 Z M104.204,114.503 C104.18,114.088 104.35,113.745 104.56,113.43 C104.617,113.345 104.813,113.349 104.948,113.322 L106.094,113.095 C106.499,113.009 106.712,112.737 106.769,112.34 C106.807,112.078 106.843,111.813 106.846,111.548 C106.871,109.451 106.895,107.354 106.905,105.257 C106.915,103.157 106.907,101.057 106.907,98.957 L106.898,98.556 C106.857,97.881 106.531,97.531 105.861,97.432 L104.408,97.211 C104.229,97.187 104.164,97.101 104.229,96.942 C104.341,96.671 104.448,96.39 104.606,96.146 C104.665,96.056 104.864,96.021 104.998,96.024 C105.692,96.034 106.386,96.086 107.08,96.085 L113.121,96.049 C114.285,96.048 115.409,96.251 116.453,96.808 C117.602,97.42 118.245,98.367 118.429,99.657 C118.621,101.012 118.21,102.154 117.22,103.061 C116.813,103.435 116.286,103.679 115.814,103.983 L115.66,104.079 C116.098,104.24 116.515,104.379 116.921,104.545 C118.109,105.032 119.054,105.793 119.554,107.008 C119.949,107.967 119.949,108.967 119.715,109.961 C119.351,111.517 118.326,112.552 116.993,113.335 C115.742,114.07 114.388,114.498 112.946,114.57 C111.616,114.637 110.28,114.612 108.947,114.627 L108.175,114.631 C106.891,114.602 105.606,114.569 104.321,114.535 L104.204,114.503 Z M109.741,108.414 L109.754,108.414 C109.754,109.072 109.745,109.73 109.757,110.388 C109.765,110.814 109.75,111.252 109.842,111.662 C109.98,112.275 110.26,112.828 110.948,113.004 C111.877,113.243 112.826,113.291 113.766,113.128 C114.943,112.923 115.882,112.333 116.397,111.212 C116.779,110.379 116.836,109.496 116.705,108.594 C116.531,107.406 115.9,106.544 114.851,105.979 C114.163,105.608 113.429,105.381 112.647,105.351 C111.771,105.318 110.894,105.316 110.018,105.289 C109.772,105.282 109.738,105.407 109.739,105.609 C109.744,106.543 109.741,107.478 109.741,108.414 Z M111.606,103.939 C112.085,103.915 112.627,103.908 113.166,103.854 C114.198,103.751 114.925,103.232 115.304,102.245 C115.497,101.744 115.489,101.228 115.494,100.707 C115.509,99.35 114.717,98.238 113.428,97.778 C112.433,97.423 111.407,97.417 110.375,97.445 C109.957,97.456 109.77,97.639 109.764,98.06 L109.702,103.549 C109.699,103.767 109.793,103.861 110.005,103.868 L111.606,103.939 Z" id="Shape" fill="#94795D"></path>
                <path d="M6.543,113.448 L6.47,114.392 C5.79,114.392 5.163,114.387 4.536,114.394 C3.355,114.406 2.174,114.425 0.992,114.442 L0.878,114.449 C0.709,114.429 0.402,114.429 0.394,114.379 C0.344,114.098 0.36,113.803 0.373,113.512 C0.374,113.479 0.489,113.437 0.556,113.421 L1.475,113.216 C2.048,113.067 2.25,112.82 2.277,112.228 C2.308,111.561 2.339,110.893 2.342,110.226 C2.351,108.584 2.341,106.944 2.348,105.302 C2.349,104.918 2.216,104.632 1.858,104.476 C1.432,104.288 1.004,104.104 0.573,103.93 C0.369,103.848 0.104,103.803 0.128,103.529 C0.152,103.25 0.409,103.177 0.651,103.122 C1.653,102.893 2.656,102.67 3.655,102.426 C3.977,102.347 4.285,102.214 4.67,102.08 C4.69,102.288 4.727,102.486 4.723,102.684 L4.664,103.625 C4.663,103.731 4.718,103.873 4.797,103.932 C4.845,103.969 5.006,103.902 5.086,103.84 C5.94,103.19 6.844,102.629 7.875,102.302 C9.472,101.795 10.843,102.265 11.803,103.642 C12.141,104.127 12.142,104.127 12.611,103.788 C13.416,103.203 14.258,102.687 15.2,102.347 C17.268,101.6 19.255,102.548 19.974,104.631 C20.236,105.387 20.336,106.168 20.334,106.966 L20.315,112.264 C20.314,112.701 20.459,112.95 20.875,113.086 C21.342,113.239 21.826,113.344 22.352,113.482 L22.23,114.393 C21.632,114.393 21.082,114.389 20.532,114.394 C19.188,114.406 17.844,114.413 16.501,114.444 C16.267,114.45 16.206,114.392 16.194,114.173 C16.155,113.472 16.149,113.473 16.809,113.315 L17.031,113.258 C17.676,113.082 17.891,112.884 17.896,112.23 C17.911,110.352 17.95,108.469 17.855,106.595 C17.756,104.651 16.213,103.616 14.329,104.114 C13.714,104.276 13.157,104.56 12.639,104.928 C12.464,105.053 12.431,105.197 12.445,105.416 C12.498,106.244 12.531,107.073 12.538,107.902 C12.55,109.353 12.532,110.804 12.538,112.256 C12.54,112.844 12.741,113.069 13.322,113.205 L14.185,113.404 L14.345,113.44 C14.357,113.716 14.368,113.992 14.355,114.268 C14.347,114.441 14.213,114.456 14.063,114.453 C13.224,114.432 12.384,114.404 11.545,114.406 C10.524,114.408 9.504,114.437 8.484,114.455 L8.244,114.455 C8.244,114.162 8.23,113.882 8.254,113.603 C8.259,113.536 8.377,113.442 8.458,113.421 L9.464,113.208 C9.891,113.103 10.095,112.884 10.119,112.45 C10.233,110.44 10.315,108.429 10.126,106.42 C10.089,106.03 9.962,105.634 9.8,105.275 C9.285,104.137 8.126,103.662 6.789,104.004 C6.154,104.166 5.581,104.457 5.039,104.824 C4.783,104.998 4.661,105.228 4.661,105.519 C4.661,107.524 4.668,109.529 4.674,111.533 L4.685,112.306 C4.697,112.845 4.926,113.129 5.461,113.245 C5.805,113.323 6.153,113.376 6.543,113.448 Z" id="Path" fill="#50382B"></path>
                <path d="M67.001,102.285 C67.156,103.039 67.153,103.717 66.599,104.231 C66.049,104.742 65.353,104.57 64.674,104.456 C64.737,104.814 64.807,105.118 64.841,105.426 C65.088,107.715 64.103,109.414 61.98,110.385 C61.178,110.751 60.327,110.887 59.458,110.957 C59.026,110.991 58.648,111.321 58.607,111.676 C58.565,112.036 58.791,112.406 59.243,112.514 C59.776,112.641 60.332,112.677 60.879,112.74 C62.053,112.874 63.24,112.935 64.4,113.145 C66.154,113.461 67.133,114.992 66.824,116.754 C66.549,118.322 65.641,119.463 64.375,120.338 C62.242,121.816 59.902,122.248 57.41,121.494 C55.985,121.062 54.98,120.125 54.633,118.609 C54.459,117.85 54.644,117.163 55.215,116.648 C55.894,116.038 56.633,115.494 57.344,114.918 L57.574,114.687 L57.31,114.502 C56.585,114.158 56.005,113.687 55.78,112.869 C55.703,112.592 55.783,112.41 56.018,112.268 C56.418,112.027 56.816,111.782 57.211,111.533 C57.397,111.417 57.581,111.297 57.754,111.163 C57.99,110.983 57.969,110.849 57.687,110.745 C57.031,110.503 56.448,110.152 55.996,109.612 C55.241,108.711 55.027,107.638 55.089,106.505 C55.186,104.735 56.147,103.569 57.709,102.819 C59.566,101.928 61.429,101.872 63.322,102.684 C64.022,102.984 64.76,103.048 65.511,102.996 C66.072,102.956 66.562,102.744 67.001,102.285 Z M60.158,114.966 C58.764,114.954 58.327,115.126 57.509,115.959 C56.593,116.893 56.598,118.188 57.512,119.126 C58.206,119.837 59.072,120.17 60.035,120.27 C61.16,120.386 62.268,120.339 63.29,119.776 C64.38,119.173 64.922,118.053 64.677,116.925 C64.474,115.994 63.788,115.568 62.953,115.323 C62.003,115.045 61.021,114.992 60.158,114.966 Z M57.42,106.058 C57.471,106.445 57.492,106.837 57.578,107.216 C57.801,108.198 58.228,109.061 59.205,109.498 C60.352,110.013 61.817,109.792 62.319,108.182 C62.663,107.079 62.621,105.984 62.206,104.908 C62.021,104.428 61.723,104.022 61.296,103.724 C60.3,103.029 58.503,102.937 57.771,104.473 C57.533,104.972 57.44,105.503 57.42,106.058 Z" id="Shape" fill="#4F382B"></path>
                <path d="M43.35,102.038 C43.387,102.209 43.461,102.403 43.463,102.598 C43.466,102.969 43.426,103.34 43.405,103.711 L43.405,104.033 L43.719,103.793 C44.579,103.085 45.503,102.482 46.579,102.157 C48.521,101.572 50.461,102.635 51.094,104.613 C51.334,105.365 51.429,106.138 51.438,106.924 C51.458,108.67 51.47,110.416 51.488,112.162 C51.494,112.789 51.566,112.901 52.159,113.082 C52.495,113.185 52.842,113.257 53.189,113.311 C53.38,113.341 53.462,113.416 53.452,113.603 L53.454,113.775 C53.447,114.498 53.397,114.531 52.696,114.529 C51.018,114.526 49.341,114.536 47.663,114.55 C47.163,114.554 47.162,114.569 47.112,114.075 L47.102,113.791 C47.133,113.365 47.143,113.369 47.562,113.307 C47.844,113.265 48.124,113.2 48.399,113.128 C48.682,113.055 48.818,112.846 48.856,112.566 C48.875,112.424 48.9,112.282 48.899,112.14 C48.875,110.232 48.906,108.322 48.802,106.417 C48.718,104.876 47.542,103.958 45.995,104.063 C45.236,104.116 44.55,104.369 43.924,104.806 C43.511,105.095 43.428,105.512 43.43,105.961 C43.438,107.745 43.455,109.529 43.474,111.314 C43.478,111.705 43.489,112.096 43.526,112.484 C43.565,112.908 43.714,113.079 44.13,113.171 C44.528,113.259 44.934,113.31 45.359,113.381 L45.395,113.709 C45.409,114.474 45.329,114.531 44.586,114.528 C42.851,114.521 41.116,114.532 39.382,114.551 C39.109,114.555 38.993,114.469 39,114.203 L38.996,114.089 C38.951,113.4 38.971,113.374 39.623,113.262 L39.931,113.2 C40.637,113.041 40.818,112.853 40.828,112.136 C40.861,109.865 40.873,107.595 40.896,105.324 C40.899,104.998 40.776,104.745 40.472,104.61 C40.046,104.422 39.616,104.243 39.185,104.066 C38.947,103.968 38.675,103.906 38.666,103.577 C38.66,103.345 38.908,103.14 39.247,103.071 C39.928,102.933 40.615,102.818 41.288,102.649 C41.958,102.482 42.616,102.258 43.35,102.038 Z" id="Path" fill="#4F372B"></path>
                <path d="M80.865,107.97 C80.833,110.091 80.282,111.806 78.782,113.093 C76.882,114.726 73.918,115.281 71.495,114.06 C70.461,113.539 69.701,112.74 69.206,111.703 C68.447,110.108 68.257,108.431 68.653,106.713 C69.045,105.014 70.074,103.783 71.614,102.986 C73.198,102.167 74.866,101.847 76.625,102.277 C78.85,102.82 80.449,104.634 80.767,106.944 C80.824,107.349 80.846,107.759 80.865,107.97 Z M78.288,109.119 L78.202,109.109 C78.202,108.909 78.213,108.709 78.2,108.509 C78.127,107.263 77.847,106.076 77.125,105.033 C76.44,104.045 75.507,103.462 74.293,103.377 C72.934,103.281 71.792,104.041 71.391,105.429 C70.789,107.513 70.993,109.544 72.051,111.453 C72.512,112.285 73.195,112.899 74.11,113.222 C75.903,113.853 77.493,113.036 77.96,111.2 C78.132,110.522 78.182,109.813 78.288,109.119 Z" id="Shape" fill="#4F382B"></path>
                <path d="M36.819,108.134 C36.782,109.656 36.423,111.063 35.483,112.286 C34.476,113.596 33.092,114.296 31.518,114.591 C29.657,114.939 27.909,114.623 26.414,113.374 C25.704,112.78 25.219,112.019 24.899,111.153 C24.374,109.733 24.243,108.278 24.566,106.795 C24.911,105.208 25.807,103.995 27.196,103.181 C28.802,102.242 30.535,101.823 32.386,102.245 C34.766,102.789 36.14,104.34 36.648,106.688 C36.75,107.162 36.764,107.652 36.819,108.134 Z M34.213,109.138 L34.144,109.128 L34.144,108.842 C34.105,107.446 33.832,106.116 32.999,104.956 C32.382,104.095 31.556,103.555 30.497,103.404 C28.771,103.158 27.643,104.182 27.269,105.573 C26.781,107.39 26.934,109.185 27.689,110.908 C28.16,111.982 28.904,112.819 30.047,113.225 C31.829,113.858 33.443,113.02 33.894,111.191 C34.06,110.522 34.11,109.824 34.213,109.138 Z" id="Shape" fill="#4F372B"></path>
                <path d="M78.362,30.544 C79.589,34.091 80.471,37.712 80.762,41.464 C81.122,46.12 80.958,50.744 79.976,55.323 L79.85,55.689 C79.542,55.69 79.228,55.651 78.927,55.698 C76.384,56.098 73.844,56.512 71.303,56.924 C68.676,57.35 66.047,57.759 63.425,58.213 C62.496,58.373 61.346,58.182 60.971,59.466 L60.791,59.527 L60.918,51.849 L60.789,33.323 L62.013,33.113 C64.014,32.786 66.015,32.453 68.019,32.134 C70.409,31.755 72.801,31.385 75.193,31.015 C76.249,30.853 77.306,30.702 78.362,30.544 Z" id="Path" fill="#439934"></path>
                <path d="M58.265,81.911 C56.974,80.801 55.638,79.74 54.401,78.572 C47.743,72.292 42.872,64.899 40.473,55.986 C39.812,53.534 39.372,51.041 39.23,48.507 C39.13,46.733 38.987,44.944 39.113,43.179 C39.446,38.486 40.125,33.838 41.501,29.317 L41.577,29.212 C41.711,29.39 41.903,29.548 41.971,29.749 C43.315,33.705 44.648,37.665 45.975,41.628 C50.144,54.079 54.308,66.533 58.484,78.982 C58.566,79.225 58.777,79.424 58.929,79.643 L58.265,81.911 Z" id="Path" fill="#45A538"></path>
                <path d="M78.362,30.544 C77.305,30.701 76.248,30.853 75.193,31.015 C72.801,31.385 70.409,31.755 68.019,32.134 C66.016,32.452 64.015,32.785 62.013,33.113 L60.789,33.323 L60.779,32.525 C60.738,31.869 60.67,31.213 60.661,30.557 L60.524,18.003 C60.492,15.384 60.444,12.765 60.391,10.147 C60.358,8.52 60.323,6.892 60.25,5.267 C60.21,4.394 60.069,3.525 60.013,2.652 C59.98,2.15 60.024,1.644 60.035,1.14 C60.659,2.349 61.27,3.567 61.911,4.767 C62.924,6.664 64.539,8.062 65.994,9.587 C71.74,15.618 75.819,22.626 78.362,30.544 Z" id="Path" fill="#46A037"></path>
                <path d="M60.792,59.527 L60.972,59.466 C61.347,58.182 62.497,58.373 63.426,58.213 C66.048,57.759 68.677,57.35 71.304,56.924 C73.845,56.513 76.385,56.099 78.928,55.698 C79.229,55.651 79.543,55.69 79.851,55.689 C79.376,57.385 79.002,59.118 78.399,60.767 C77.714,62.637 76.886,64.463 76.007,66.253 C74.693,68.928 73.056,71.424 71.154,73.711 C69.688,75.473 68.054,77.104 66.417,78.713 C65.511,79.602 64.445,80.327 63.451,81.127 L63.193,80.951 L62.266,80.159 L61.307,78.055 C60.646,75.593 60.3,73.087 60.242,70.539 L60.26,70.111 L60.391,68.257 C60.434,67.624 60.492,66.992 60.519,66.359 C60.615,64.083 60.701,61.805 60.792,59.527 Z" id="Path" fill="#409433"></path>
                <path d="M60.792,59.527 C60.702,61.805 60.616,64.084 60.519,66.362 C60.492,66.996 60.435,67.628 60.391,68.26 L59.807,68.481 C58.509,64.66 57.21,60.879 55.94,57.089 C53.839,50.818 51.764,44.538 49.666,38.265 C47.973,33.203 46.265,28.144 44.548,23.089 C44.467,22.853 44.237,22.667 44.077,22.458 L47.817,15.581 C47.946,15.804 48.115,16.013 48.196,16.253 C49.926,21.373 51.653,26.494 53.365,31.62 C55.593,38.29 57.806,44.963 60.032,51.634 C60.121,51.9 60.267,52.146 60.407,52.445 L60.919,51.849 C60.876,54.409 60.834,56.967 60.792,59.527 Z" id="Path" fill="#4FAA41"></path>
                <path d="M44.076,22.458 C44.237,22.667 44.467,22.853 44.547,23.089 C46.264,28.144 47.972,33.202 49.665,38.265 C51.763,44.538 53.838,50.818 55.939,57.089 C57.209,60.879 58.508,64.659 59.806,68.481 L60.39,68.26 L60.259,70.114 L60.14,70.541 C59.937,72.57 59.766,74.603 59.518,76.628 C59.394,77.643 59.129,78.639 58.928,79.643 C58.777,79.424 58.565,79.225 58.483,78.982 C54.306,66.533 50.143,54.079 45.974,41.628 C44.647,37.665 43.313,33.705 41.97,29.749 C41.902,29.548 41.71,29.39 41.576,29.212 L44.076,22.458 Z" id="Path" fill="#4AA73C"></path>
                <path d="M60.918,51.849 L60.406,52.445 C60.266,52.146 60.12,51.9 60.031,51.634 C57.805,44.963 55.592,38.29 53.364,31.62 C51.652,26.494 49.925,21.373 48.195,16.253 C48.114,16.013 47.945,15.804 47.816,15.581 L52.441,9.497 C52.587,9.691 52.795,9.864 52.87,10.083 C54.154,13.843 55.426,17.606 56.692,21.372 C57.874,24.89 59.038,28.412 60.234,31.924 C60.314,32.159 60.593,32.325 60.779,32.525 L60.789,33.323 L60.918,51.849 Z" id="Path" fill="#57AE47"></path>
                <path d="M60.779,32.525 C60.592,32.326 60.314,32.16 60.234,31.924 C59.039,28.412 57.874,24.89 56.692,21.372 C55.426,17.606 54.154,13.843 52.87,10.083 C52.795,9.864 52.587,9.691 52.441,9.497 C53.945,8.024 55.402,6.498 56.967,5.093 C58.358,3.845 59.476,2.507 59.528,0.534 L59.638,0.141 L60.034,1.139 C60.024,1.643 59.979,2.149 60.012,2.651 C60.069,3.524 60.21,4.393 60.249,5.266 C60.322,6.891 60.357,8.519 60.39,10.146 C60.443,12.764 60.491,15.383 60.523,18.002 L60.66,30.556 C60.67,31.213 60.739,31.869 60.779,32.525 Z" id="Path" fill="#60B24F"></path>
                <path d="M58.929,79.642 C59.13,78.638 59.395,77.642 59.519,76.627 C59.767,74.603 59.938,72.569 60.141,70.54 L60.192,70.532 L60.242,70.541 C60.3,73.089 60.646,75.595 61.307,78.057 C61.172,78.235 60.983,78.392 60.911,78.592 C60.356,80.158 59.832,81.737 59.274,83.302 C59.198,83.516 58.984,83.683 58.835,83.87 L58.264,81.91 L58.929,79.642 Z" id="Path" fill="#A9AA88"></path>
                <path d="M58.835,83.871 C58.984,83.683 59.198,83.517 59.274,83.303 C59.832,81.738 60.356,80.159 60.911,78.593 C60.982,78.393 61.172,78.236 61.307,78.058 L62.266,80.162 C62.077,80.43 61.815,80.673 61.71,80.972 L59.874,86.364 C59.798,86.581 59.541,86.733 59.367,86.916 L58.835,83.871 Z" id="Path" fill="#B6B598"></path>
                <path d="M59.367,86.915 C59.54,86.732 59.798,86.58 59.874,86.363 L61.71,80.971 C61.814,80.672 62.077,80.429 62.266,80.161 L63.194,80.952 C62.746,81.395 62.497,81.907 62.647,82.554 L62.365,83.477 C62.237,83.635 62.051,83.773 61.988,83.954 C61.347,85.79 60.736,87.636 60.09,89.471 C60.008,89.703 59.781,89.886 59.622,90.092 L59.367,86.915 Z" id="Path" fill="#C2C1A7"></path>
                <path d="M59.621,90.091 C59.781,89.885 60.008,89.702 60.089,89.47 C60.735,87.635 61.347,85.789 61.987,83.953 C62.05,83.772 62.236,83.635 62.364,83.476 L61.975,87.712 C61.871,87.832 61.721,87.937 61.671,88.076 L60.377,91.784 C60.286,92.037 60.112,92.263 59.976,92.5 C59.855,92.342 59.639,92.189 59.629,92.025 C59.591,91.383 59.618,90.736 59.621,90.091 Z" id="Path" fill="#CECDB7"></path>
                <path d="M59.977,92.501 C60.113,92.264 60.287,92.038 60.378,91.785 L61.672,88.077 C61.722,87.937 61.873,87.833 61.976,87.713 L61.986,90.493 L61.055,92.88 L59.977,92.501 Z" id="Path" fill="#DBDAC7"></path>
                <polygon id="Path" fill="#EBE9DC" points="61.055 92.88 61.986 90.493 62.178 93.317 61.055 92.88"></polygon>
                <path d="M62.646,82.554 C62.497,81.908 62.745,81.396 63.193,80.952 L63.451,81.128 L62.646,82.554 Z" id="Path" fill="#CECDB7"></path>
                <polygon id="Path" fill="#4FAA41" points="60.242 70.542 60.192 70.533 60.141 70.541 60.26 70.114 60.242 70.542"></polygon>
            </g>
        </g>
    </g>
</svg>