<?xml version="1.0" encoding="UTF-8"?>
<svg width="107px" height="122px" viewBox="0 0 107 122" version="1.1" xmlns="http://www.w3.org/2000/svg" xmlns:xlink="http://www.w3.org/1999/xlink">
    <!-- Generator: Sketch 52.2 (67145) - http://www.bohemiancoding.com/sketch -->
    <title>nodejs-plain</title>
    <desc>Created with Sketch.</desc>
    <g id="Page-4" stroke="none" stroke-width="1" fill="none" fill-rule="evenodd">
        <g id="Done" transform="translate(-888.000000, -156.000000)" fill="#83CD29" fill-rule="nonzero">
            <g id="nodejs-plain" transform="translate(888.000000, 156.000000)">
                <path d="M102.678,27.334 L58.535,1.729 C55.754,0.145 52.111,0.145 49.308,1.729 L4.82,27.334 C1.951,28.985 -7.10542736e-15,32.088 -7.10542736e-15,35.407 L-7.10542736e-15,86.549 C-7.10542736e-15,89.868 1.992,92.972 4.862,94.632 L16.591,101.32 C22.218,104.092 23.777,104.092 26.337,104.092 C34.671,104.092 38.999,99.053 38.999,90.264 L38.999,39.774 C39,39.061 39.445,38 38.744,38 L33.122,38 C32.41,38 31,39.061 31,39.773 L31,90.263 C31,94.159 27.384,98.036 20.798,94.743 L8.676,87.73 C8.254,87.5 8,87.037 8,86.549 L8,35.407 C8,34.925 8.463,34.441 8.891,34.194 L53.269,8.633 C53.684,8.398 54.271,8.398 54.684,8.633 L98.647,34.188 C99.068,34.441 99.001,34.91 99.001,35.407 L99.001,86.549 C99.001,87.037 99.093,87.512 98.678,87.747 L54.545,113.323 C54.167,113.55 53.675,113.55 53.26,113.323 L41.943,106.574 C41.602,106.376 41.191,106.305 40.863,106.488 C37.718,108.271 37.134,108.508 34.184,109.531 C33.457,109.784 32.385,110.223 34.592,111.46 L49.39,120.214 C50.806,121.034 52.417,121.46 54.037,121.46 C55.679,121.46 57.286,121.034 58.703,120.214 L102.679,94.632 C105.55,92.96 107.001,89.868 107.001,86.549 L107.001,35.407 C107,32.088 105.549,28.993 102.678,27.334 Z M67.727,78.445 C56,78.445 53.418,75.21 52.557,69.379 C52.455,68.751 51.923,68 51.283,68 L45.553,68 C44.844,68 44.273,68.86 44.273,69.566 C44.273,77.032 48.333,86.078 67.727,86.078 C81.765,86.078 89.815,80.623 89.815,70.969 C89.815,61.397 83.348,58.885 69.733,57.083 C55.971,55.264 54.573,54.345 54.573,51.121 C54.573,48.463 55.757,44.918 65.947,44.918 C75.051,44.918 78.407,46.872 79.788,53.009 C79.907,53.586 80.434,54 81.029,54 L86.783,54 C87.137,54 87.474,53.857 87.722,53.604 C87.963,53.332 88.089,52.991 88.058,52.625 C87.165,42.056 80.145,37.131 65.946,37.131 C53.314,37.131 45.78,42.465 45.78,51.406 C45.78,61.104 53.277,63.784 65.402,64.983 C79.907,66.405 81.035,68.525 81.035,71.378 C81.035,76.334 77.057,78.445 67.727,78.445 Z" id="Shape"></path>
            </g>
        </g>
    </g>
</svg>