<?xml version="1.0" encoding="UTF-8"?>
<svg width="124px" height="62px" viewBox="0 0 124 62" version="1.1" xmlns="http://www.w3.org/2000/svg" xmlns:xlink="http://www.w3.org/1999/xlink">
    <!-- Generator: Sketch 52.2 (67145) - http://www.bohemiancoding.com/sketch -->
    <title>php-plain</title>
    <desc>Created with Sketch.</desc>
    <g id="Page-4" stroke="none" stroke-width="1" fill="none" fill-rule="evenodd">
        <g id="PLACEHOLDER" transform="translate(-233.000000, -243.000000)" fill="#6181B6" fill-rule="nonzero">
            <g id="php-plain" transform="translate(233.000000, 243.000000)">
                <path d="M62,0.039 C28.26,0.039 0.906,13.901 0.906,31 C0.906,48.099 28.26,61.961 62,61.961 C95.74,61.961 123.094,48.099 123.094,31 C123.094,13.901 95.74,0.039 62,0.039 Z M46.103,37.032 C44.645,38.396 43.026,38.959 41.243,39.539 C39.46,40.12 37.191,40 34.432,40 L28.179,40 L26.446,50 L19.145,50 L25.66,16 L39.7,16 C43.924,16 47.005,17.215 48.942,19.432 C50.879,21.649 51.461,24.796 50.689,28.769 C50.37,30.406 49.833,31.928 49.075,33.284 C48.316,34.641 47.325,35.908 46.103,37.032 Z M67.414,40 L70.295,25.58 C70.623,23.892 70.503,22.638 69.934,22.025 C69.364,21.411 68.152,21 66.299,21 L60.509,21 L56.778,40 L49.534,40 L56.049,7 L63.293,7 L61.561,16 L68.014,16 C72.075,16 74.875,16.815 76.416,18.231 C77.957,19.647 78.419,21.587 77.803,24.759 L74.772,40 L67.414,40 Z M107.673,28.822 C107.355,30.459 106.817,31.955 106.06,33.31 C105.302,34.667 104.312,35.908 103.089,37.032 C101.631,38.396 100.011,38.959 98.229,39.539 C96.447,40.12 94.176,40 91.417,40 L85.164,40 L83.432,50 L76.131,50 L82.645,16 L96.686,16 C100.91,16 103.991,17.215 105.927,19.432 C107.862,21.649 108.445,24.85 107.673,28.822 Z M93.919,21 L88.918,21 L86.191,35 L90.633,35 C93.575,35 95.769,34.71 97.209,33.6 C98.651,32.492 99.622,30.772 100.127,28.179 C100.611,25.688 100.391,23.745 99.467,22.721 C98.542,21.697 96.693,21 93.919,21 Z M36.934,21 L31.932,21 L29.205,35 L33.646,35 C36.589,35 38.782,34.71 40.223,33.6 C41.664,32.492 42.636,30.772 43.14,28.179 C43.624,25.688 43.404,23.745 42.48,22.721 C41.556,21.697 39.708,21 36.934,21 Z" id="Shape"></path>
            </g>
        </g>
    </g>
</svg>