<?xml version="1.0" encoding="UTF-8"?>
<svg width="122px" height="124px" viewBox="0 0 122 124" version="1.1" xmlns="http://www.w3.org/2000/svg" xmlns:xlink="http://www.w3.org/1999/xlink">
    <!-- Generator: Sketch 52.2 (67145) - http://www.bohemiancoding.com/sketch -->
    <title>python-plain</title>
    <desc>Created with Sketch.</desc>
    <g id="Page-4" stroke="none" stroke-width="1" fill="none" fill-rule="evenodd">
        <g id="Done" transform="translate(-852.000000, -292.000000)" fill="#FFD845" fill-rule="nonzero">
            <g id="python-plain" transform="translate(852.000000, 292.000000)">
                <path d="M46.33,60 L75.489,60 C83.606,60 90,53.132 90,44.981 L90,17.183 C90,9.271 83.368,3.327 75.445,2.007 C70.431,1.172 65.25,0.792 60.258,0.816 C55.268,0.839 50.646,1.264 46.453,2.007 C34.098,4.188 32,8.758 32,17.183 L32,28 L61,28 L61,32 L20.776,32 C12.292,32 4.862,37.108 2.539,46.811 C-0.142,57.931 -0.261,64.73 2.539,76.341 C4.614,84.983 9.569,91 18.054,91 L28,91 L28,77.952 C28,68.315 36.428,60 46.33,60 Z M44.492,20.89 C41.466,20.89 39.014,18.411 39.014,15.345 C39.014,12.266 41.465,9.764 44.492,9.764 C47.507,9.764 49.971,12.266 49.971,15.345 C49.97,18.411 47.506,20.89 44.492,20.89 Z M119.281,46.811 C117.183,38.363 113.178,32 104.682,32 L94,32 L94,44.981 C94,55.031 85.206,63 75.489,63 L46.33,63 C38.342,63 32,70.326 32,78.326 L32,106.126 C32,114.036 38.745,118.69 46.462,120.96 C55.704,123.677 64.456,124.168 75.513,120.96 C82.862,118.831 90,114.549 90,106.126 L90,95 L61,95 L61,91 L104.682,91 C113.166,91 116.329,85.224 119.281,76.34 C122.328,67.195 122.197,58.541 119.281,46.811 Z M77.326,102.417 C80.353,102.417 82.805,104.896 82.805,107.964 C82.805,111.04 80.354,113.543 77.326,113.543 C74.311,113.543 71.848,111.041 71.848,107.964 C71.848,104.896 74.311,102.417 77.326,102.417 Z" id="Shape"></path>
            </g>
        </g>
    </g>
</svg>