<?xml version="1.0" encoding="UTF-8"?>
<svg width="125px" height="126px" viewBox="0 0 125 126" version="1.1" xmlns="http://www.w3.org/2000/svg" xmlns:xlink="http://www.w3.org/1999/xlink">
    <!-- Generator: Sketch 52.2 (67145) - http://www.bohemiancoding.com/sketch -->
    <title>typescript-plain</title>
    <desc>Created with Sketch.</desc>
    <g id="Page-4" stroke="none" stroke-width="1" fill="none" fill-rule="evenodd">
        <g id="PLACEHOLDER" transform="translate(-232.000000, -349.000000)" fill="#007ACC" fill-rule="nonzero">
            <g id="typescript-plain" transform="translate(232.000000, 349.000000)">
                <path d="M0,62.91 L0,125.41 L125,125.41 L125,0.41 L0,0.41 L0,62.91 Z M100.73,57.91 C103.723886,58.6047697 106.444964,60.1706075 108.55,62.41 C109.708855,63.6164492 110.716288,64.9596935 111.55,66.41 C111.55,66.57 106.15,70.22 102.86,72.26 C102.74,72.34 102.26,71.82 101.73,71.03 C100.509209,68.9235196 98.2929721,67.590757 95.86,67.5 C92.07,67.24 89.63,69.23 89.65,72.5 C89.6186612,73.3141464 89.8050695,74.1219157 90.19,74.84 C91.02,76.57 92.57,77.6 97.43,79.7 C106.38,83.55 110.21,86.09 112.59,89.7 C115.25,93.7 115.84,100.16 114.04,104.94 C112.04,110.14 107.14,113.67 100.21,114.84 C97.0448475,115.202533 93.8468387,115.16894 90.69,114.74 C85.8721641,113.958442 81.427864,111.664496 78,108.19 C76.85,106.92 74.61,103.61 74.75,103.37 C75.1150551,103.099001 75.4994103,102.855019 75.9,102.64 L80.5,100 L84.09,97.92 L84.84,99.03 C86.1057407,100.840599 87.7165498,102.383441 89.58,103.57 C93.58,105.67 99.04,105.38 101.74,102.95 C103.610685,101.112511 103.901025,98.2006944 102.43,96.03 C101.43,94.64 99.43,93.47 93.84,91.03 C87.39,88.25 84.61,86.53 82.07,83.79 C80.4843339,81.9818904 79.3136095,79.8486463 78.64,77.54 C78.1375451,74.9024492 78.0632602,72.2011787 78.42,69.54 C79.75,63.31 84.42,58.96 91.24,57.67 C94.3984213,57.2792001 97.5977142,57.366852 100.73,57.93 L100.73,57.91 Z M71.39,63.15 L71.39,68.27 L55.16,68.27 L55.16,114.5 L43.65,114.5 L43.65,68.26 L27.38,68.26 L27.38,63.26 C27.3363256,61.5387352 27.3830566,59.8163643 27.52,58.1 C27.58,58.02 37.52,57.98 49.52,58 L71.33,58 L71.39,63.15 Z" id="plain"></path>
            </g>
        </g>
    </g>
</svg>